<svg width="16" height="21" viewBox="0 0 16 21" fill="none" xmlns="http://www.w3.org/2000/svg">
<path d="M9 1.91016C9 1.35787 8.55228 0.910156 8 0.910156C7.44772 0.910156 7 1.35787 7 1.91016L8 1.91016L9 1.91016ZM7.29289 20.6173C7.68342 21.0078 8.31658 21.0078 8.70711 20.6173L15.0711 14.2533C15.4616 13.8628 15.4616 13.2296 15.0711 12.8391C14.6805 12.4486 14.0474 12.4486 13.6569 12.8391L8 18.4959L2.34315 12.8391C1.95262 12.4486 1.31946 12.4486 0.928932 12.8391C0.538407 13.2296 0.538407 13.8628 0.928932 14.2533L7.29289 20.6173ZM8 1.91016L7 1.91016L7 19.9102L8 19.9102L9 19.9102L9 1.91016L8 1.91016Z" fill="#6D7787"/>
</svg>
