<svg width="136" height="135" viewBox="0 0 136 135" fill="none" xmlns="http://www.w3.org/2000/svg">
<path d="M79.2754 1.33351C80.447 0.162427 82.3462 0.162109 83.5176 1.33351L102.609 20.4253C103.781 21.5967 103.78 23.4959 102.609 24.6675C101.438 25.8391 99.5388 25.8391 98.3672 24.6675L84.3965 10.6968V92.8804C84.3965 115.562 65.7421 134.082 42.9609 134.083C19.5199 134.083 0.322266 115.028 0.322266 91.6851C0.322524 68.9983 18.9818 50.4781 41.7627 50.478H70.7969C72.4533 50.4783 73.7965 51.8217 73.7969 53.478C73.7969 55.1347 72.4535 56.4778 70.7969 56.478H41.7627C22.2609 56.4781 6.32252 72.3465 6.32227 91.6851C6.32227 111.68 22.7991 128.083 42.9609 128.083C62.4624 128.082 78.3965 112.214 78.3965 92.8804V10.6968L64.4258 24.6675C63.2542 25.839 61.3552 25.839 60.1836 24.6675C59.012 23.4959 59.012 21.5969 60.1836 20.4253L79.2754 1.33351ZM44.667 68.4087C45.2191 68.4089 45.667 68.8565 45.667 69.4087V72.4478C45.6671 72.95 46.0404 73.3712 46.5352 73.4575C48.0697 73.7253 49.4154 74.153 50.5693 74.7466C52.6714 75.8261 54.2047 77.2523 55.1729 79.0151C56.1358 80.778 56.6221 82.7096 56.6221 84.8042C56.6219 85.1514 56.3404 85.4331 55.9932 85.4331H51.3359C51.0189 85.4331 50.762 85.1759 50.7617 84.8589C50.7617 83.3933 50.5123 82.1799 50.0205 81.2193C49.5287 80.2586 48.6487 79.5251 47.3906 79.02C46.1326 78.515 44.4241 78.2622 42.2705 78.2622C39.5317 78.2622 37.5694 78.649 36.3838 79.4165C35.1931 80.184 34.6027 81.3226 34.6025 82.8228C34.6025 83.9021 34.7937 84.7593 35.1768 85.3882C35.5599 86.0121 36.2231 86.512 37.1758 86.8784C38.1284 87.2449 39.4436 87.6162 41.1211 88.0025L47.3652 89.2603C49.6689 89.7108 51.5479 90.3847 53.0078 91.2759C54.467 92.1667 55.5435 93.2655 56.2373 94.5767C56.238 94.578 56.2398 94.5785 56.2412 94.5786C56.2428 94.5786 56.2444 94.5801 56.2451 94.5816C56.938 95.8882 57.2851 97.3974 57.2852 99.2134C57.2852 101.031 56.8087 102.71 55.8613 104.245C54.9088 105.785 53.4381 107.007 51.4502 107.914C50.0996 108.532 48.4837 108.934 46.6035 109.131C46.0803 109.186 45.6721 109.62 45.6719 110.146V112.99C45.6719 113.542 45.2241 113.99 44.6719 113.99H41.1943C40.6421 113.99 40.1943 113.542 40.1943 112.99V109.973C40.1943 109.466 39.8132 109.041 39.3115 108.963C37.7605 108.724 36.3833 108.348 35.1826 107.834C32.9356 106.874 31.2732 105.527 30.1963 103.799C29.1194 102.066 28.5811 100.07 28.5811 97.7974C28.5811 97.3353 28.9558 96.9605 29.418 96.9605H33.8154C34.1325 96.9605 34.3904 97.2176 34.3906 97.5347C34.3906 98.9658 34.6545 100.174 35.1826 101.15C35.7107 102.125 36.6683 102.858 38.0557 103.348C39.4432 103.838 41.4315 104.082 44.0254 104.082C46.7643 104.082 48.675 103.71 49.752 102.958C50.8288 102.21 51.3672 101.026 51.3672 99.4214C51.3672 98.3422 51.2011 97.4561 50.875 96.7778C50.5437 96.0995 49.8968 95.5493 48.9287 95.1284C47.9605 94.7075 46.5261 94.3267 44.626 93.9751L38.3818 92.771C36.2646 92.3898 34.494 91.7862 33.0703 90.9644C31.6413 90.1473 30.5541 89.0869 29.8086 87.7944C29.0579 86.5021 28.6846 84.8733 28.6846 83.1304C28.6846 81.3873 29.1666 79.7531 30.1348 78.2329C31.1029 76.7129 32.6038 75.4843 34.6279 74.5386C35.9398 73.924 37.4873 73.5128 39.2695 73.2984C39.7872 73.2361 40.1883 72.805 40.1885 72.2837V69.4087C40.1885 68.8566 40.6364 68.4089 41.1885 68.4087H44.667ZM111.305 32.3814C112.476 31.2098 114.376 31.2098 115.548 32.3814L134.64 51.4732C135.811 52.6447 135.811 54.5438 134.64 55.7153L115.548 74.8071C114.376 75.9784 112.476 75.9786 111.305 74.8071C110.134 73.6357 110.134 71.7365 111.305 70.565L125.275 56.5943H92.333C90.6764 56.5941 89.3332 55.2508 89.333 53.5943C89.333 51.9375 90.6763 50.5944 92.333 50.5943H125.275L111.305 36.6235C110.134 35.4522 110.134 33.5529 111.305 32.3814Z" fill="url(#paint0_linear_419_821)"/>
<defs>
<linearGradient id="paint0_linear_419_821" x1="67.9202" y1="0.455078" x2="67.9202" y2="134.083" gradientUnits="userSpaceOnUse">
<stop stop-color="#00090D"/>
<stop offset="0.5" stop-color="#00101A"/>
<stop offset="1" stop-color="#00101A"/>
</linearGradient>
</defs>
</svg>
