<svg width="185" height="184" viewBox="0 0 185 184" fill="none" xmlns="http://www.w3.org/2000/svg">
<path d="M105.275 20.4234C106.447 19.2523 108.346 19.252 109.518 20.4234L128.609 39.5152C129.781 40.6866 129.78 42.5857 128.609 43.7573C127.438 44.9289 125.539 44.9289 124.367 43.7573L110.396 29.7866V111.97C110.396 134.652 91.7421 153.172 68.9609 153.172C45.5199 153.172 26.3223 134.118 26.3223 110.775C26.3225 88.0882 44.9818 69.568 67.7627 69.5679H96.7969C98.4533 69.5681 99.7965 70.9115 99.7969 72.5679C99.7969 74.2246 98.4535 75.5676 96.7969 75.5679H67.7627C48.2609 75.568 32.3225 91.4363 32.3223 110.775C32.3223 130.77 48.7991 147.172 68.9609 147.172C88.4624 147.172 104.396 131.304 104.396 111.97V29.7866L90.4258 43.7573C89.2542 44.9289 87.3552 44.9288 86.1836 43.7573C85.012 42.5858 85.012 40.6867 86.1836 39.5152L105.275 20.4234ZM70.667 87.4986C71.2191 87.4987 71.667 87.9464 71.667 88.4986V91.5376C71.6671 92.0398 72.0404 92.461 72.5352 92.5474C74.0697 92.8152 75.4154 93.2429 76.5693 93.8364C78.6714 94.9159 80.2047 96.3421 81.1729 98.105C82.1358 99.8678 82.6221 101.799 82.6221 103.894C82.6219 104.241 82.3404 104.523 81.9932 104.523H77.3359C77.0189 104.523 76.762 104.266 76.7617 103.949C76.7617 102.483 76.5123 101.27 76.0205 100.309C75.5287 99.3484 74.6487 98.615 73.3906 98.1099C72.1326 97.6049 70.4241 97.3521 68.2705 97.3521C65.5317 97.3521 63.5694 97.7389 62.3838 98.5064C61.1931 99.2738 60.6027 100.412 60.6025 101.913C60.6025 102.992 60.7937 103.849 61.1768 104.478C61.5599 105.102 62.2231 105.602 63.1758 105.968C64.1284 106.335 65.4436 106.706 67.1211 107.092L73.3652 108.35C75.6689 108.801 77.5479 109.475 79.0078 110.366C80.467 111.257 81.5435 112.355 82.2373 113.667C82.238 113.668 82.2398 113.668 82.2412 113.668C82.2428 113.668 82.2444 113.67 82.2451 113.671C82.938 114.978 83.2851 116.487 83.2852 118.303C83.2852 120.12 82.8087 121.799 81.8613 123.334C80.9088 124.874 79.4381 126.097 77.4502 127.003C76.0996 127.622 74.4837 128.024 72.6035 128.221C72.0803 128.276 71.6721 128.71 71.6719 129.236V132.08C71.6719 132.632 71.2241 133.08 70.6719 133.08H67.1943C66.6421 133.08 66.1943 132.632 66.1943 132.08V129.063C66.1943 128.555 65.8132 128.131 65.3115 128.053C63.7605 127.814 62.3833 127.438 61.1826 126.924C58.9356 125.964 57.2732 124.617 56.1963 122.889C55.1194 121.156 54.5811 119.16 54.5811 116.887C54.5811 116.425 54.9558 116.05 55.418 116.05H59.8154C60.1325 116.05 60.3904 116.307 60.3906 116.625C60.3906 118.056 60.6545 119.264 61.1826 120.24C61.7107 121.215 62.6683 121.948 64.0557 122.438C65.4432 122.928 67.4315 123.171 70.0254 123.171C72.7643 123.171 74.675 122.8 75.752 122.047C76.8288 121.3 77.3672 120.116 77.3672 118.511C77.3672 117.432 77.2011 116.546 76.875 115.868C76.5437 115.189 75.8968 114.639 74.9287 114.218C73.9605 113.797 72.5261 113.417 70.626 113.065L64.3818 111.861C62.2646 111.48 60.494 110.876 59.0703 110.054C57.6413 109.237 56.5541 108.177 55.8086 106.884C55.0579 105.592 54.6846 103.963 54.6846 102.22C54.6846 100.477 55.1666 98.843 56.1348 97.3228C57.1029 95.8027 58.6038 94.5742 60.6279 93.6284C61.9398 93.0138 63.4873 92.6026 65.2695 92.3882C65.7872 92.3259 66.1883 91.8949 66.1885 91.3736V88.4986C66.1885 87.9464 66.6364 87.4988 67.1885 87.4986H70.667ZM137.305 51.4712C138.476 50.2996 140.376 50.2996 141.548 51.4712L160.64 70.563C161.811 71.7345 161.811 73.6337 160.64 74.8052L141.548 93.897C140.376 95.0682 138.476 95.0684 137.305 93.897C136.134 92.7256 136.134 90.8263 137.305 89.6548L151.275 75.6841H118.333C116.676 75.6839 115.333 74.3407 115.333 72.6841C115.333 71.0273 116.676 69.6843 118.333 69.6841H151.275L137.305 55.7134C136.134 54.542 136.134 52.6428 137.305 51.4712Z" fill="#252638"/>
</svg>
