<svg width="136" height="136" viewBox="0 0 136 136" fill="none" xmlns="http://www.w3.org/2000/svg">
<path d="M57.5713 6.63086C83.8525 6.63086 105.055 28.3542 105.055 55.0225C105.055 68.5451 99.5998 80.7929 90.7988 89.585L128.755 127.541C129.926 128.713 129.926 130.612 128.755 131.783C127.583 132.955 125.684 132.955 124.513 131.783L86.29 93.5605C78.3223 99.7388 68.3769 103.413 57.5713 103.413C31.2902 103.413 10.0881 81.6906 10.0879 55.0225C10.0879 28.3542 31.2901 6.63086 57.5713 6.63086ZM57.5713 12.6309C34.7175 12.6309 16.0879 31.553 16.0879 55.0225C16.0881 78.4917 34.7176 97.4131 57.5713 97.4131C80.425 97.4131 99.0545 78.4917 99.0547 55.0225C99.0547 31.553 80.4251 12.6309 57.5713 12.6309ZM56.6631 35.6816C58.3199 35.6816 59.6631 37.0248 59.6631 38.6816V52.0127L73.0059 52.0234C74.6626 52.0247 76.005 53.3686 76.0039 55.0254C76.0027 56.6822 74.6587 58.0245 73.002 58.0234L59.6631 58.0127V71.3633C59.6631 73.0201 58.3199 74.3633 56.6631 74.3633C55.0063 74.3632 53.6631 73.0201 53.6631 71.3633V58.0088L40.998 58C39.3413 57.9988 37.9989 56.6548 38 54.998C38.0012 53.3413 39.3452 51.9989 41.002 52L53.6631 52.0088V38.6816C53.6631 37.0249 55.0063 35.6818 56.6631 35.6816Z" fill="url(#paint0_linear_249_5419)"/>
<defs>
<linearGradient id="paint0_linear_249_5419" x1="69.8607" y1="6.63086" x2="69.8607" y2="132.662" gradientUnits="userSpaceOnUse">
<stop stop-color="#00090D"/>
<stop offset="0.5" stop-color="#00101A"/>
<stop offset="1" stop-color="#00101A"/>
</linearGradient>
</defs>
</svg>
