<svg width="94" height="34" viewBox="0 0 94 34" fill="none" xmlns="http://www.w3.org/2000/svg">
<rect width="94" height="34" rx="8" fill="#CBE0EF" fill-opacity="0.1"/>
<rect x="0.5" y="0.5" width="93" height="33" rx="7.5" stroke="#CBE0EF" stroke-opacity="0.15"/>
<path d="M31 17C31 14.9178 30.278 12.9 28.9571 11.2905C27.6362 9.6809 25.798 8.57915 23.7558 8.17293C21.7136 7.76672 19.5938 8.08117 17.7574 9.06271C15.9211 10.0442 14.4819 11.6321 13.6851 13.5558C12.8883 15.4795 12.7831 17.62 13.3875 19.6126C13.992 21.6051 15.2686 23.3264 16.9999 24.4832C18.7312 25.64 20.81 26.1608 22.8822 25.9567C24.9543 25.7526 26.8916 24.8363 28.364 23.364" stroke="#FF4F81" stroke-width="2" stroke-linecap="round"/>
<circle cx="22" cy="17" r="2" fill="#FF4F81"/>
<path d="M46.7273 15.125C46.6477 14.8485 46.536 14.6042 46.392 14.392C46.2481 14.1761 46.072 13.9943 45.8636 13.8466C45.6591 13.6951 45.4242 13.5795 45.1591 13.5C44.8977 13.4205 44.608 13.3807 44.2898 13.3807C43.6951 13.3807 43.1723 13.5284 42.7216 13.8239C42.2746 14.1193 41.9261 14.5492 41.6761 15.1136C41.4261 15.6742 41.3011 16.3598 41.3011 17.1705C41.3011 17.9811 41.4242 18.6705 41.6705 19.2386C41.9167 19.8068 42.2652 20.2405 42.7159 20.5398C43.1667 20.8352 43.6989 20.983 44.3125 20.983C44.8693 20.983 45.3447 20.8845 45.7386 20.6875C46.1364 20.4867 46.4394 20.2045 46.6477 19.8409C46.8598 19.4773 46.9659 19.0473 46.9659 18.5511L47.4659 18.625H44.4659V16.7727H49.3352V18.2386C49.3352 19.2614 49.1193 20.1402 48.6875 20.875C48.2557 21.6061 47.661 22.1705 46.9034 22.5682C46.1458 22.9621 45.2784 23.1591 44.3011 23.1591C43.2102 23.1591 42.2519 22.9186 41.4261 22.4375C40.6004 21.9527 39.9564 21.2652 39.4943 20.375C39.036 19.4811 38.8068 18.4205 38.8068 17.1932C38.8068 16.25 38.9432 15.4091 39.2159 14.6705C39.4924 13.928 39.8788 13.2992 40.375 12.7841C40.8712 12.2689 41.4489 11.8769 42.108 11.608C42.767 11.339 43.4811 11.2045 44.25 11.2045C44.9091 11.2045 45.5227 11.3011 46.0909 11.4943C46.6591 11.6837 47.1629 11.9527 47.6023 12.3011C48.0455 12.6496 48.4072 13.0644 48.6875 13.5455C48.9678 14.0227 49.1477 14.5492 49.2273 15.125H46.7273ZM61.8764 17.1818C61.8764 18.4508 61.6359 19.5303 61.1548 20.4205C60.6776 21.3106 60.026 21.9905 59.2003 22.4602C58.3783 22.9261 57.4541 23.1591 56.4276 23.1591C55.3935 23.1591 54.4654 22.9242 53.6435 22.4545C52.8215 21.9848 52.1719 21.3049 51.6946 20.4148C51.2173 19.5246 50.9787 18.447 50.9787 17.1818C50.9787 15.9129 51.2173 14.8333 51.6946 13.9432C52.1719 13.053 52.8215 12.375 53.6435 11.9091C54.4654 11.4394 55.3935 11.2045 56.4276 11.2045C57.4541 11.2045 58.3783 11.4394 59.2003 11.9091C60.026 12.375 60.6776 13.053 61.1548 13.9432C61.6359 14.8333 61.8764 15.9129 61.8764 17.1818ZM59.3821 17.1818C59.3821 16.3598 59.259 15.6667 59.0128 15.1023C58.7704 14.5379 58.4276 14.1098 57.9844 13.8182C57.5412 13.5265 57.0223 13.3807 56.4276 13.3807C55.8329 13.3807 55.3139 13.5265 54.8707 13.8182C54.4276 14.1098 54.0829 14.5379 53.8366 15.1023C53.5942 15.6667 53.473 16.3598 53.473 17.1818C53.473 18.0038 53.5942 18.697 53.8366 19.2614C54.0829 19.8258 54.4276 20.2538 54.8707 20.5455C55.3139 20.8371 55.8329 20.983 56.4276 20.983C57.0223 20.983 57.5412 20.8371 57.9844 20.5455C58.4276 20.2538 58.7704 19.8258 59.0128 19.2614C59.259 18.697 59.3821 18.0038 59.3821 17.1818ZM65.0483 23H62.4119L66.429 11.3636H69.5994L73.6108 23H70.9744L68.0597 14.0227H67.9688L65.0483 23ZM64.8835 18.4261H71.1108V20.3466H64.8835V18.4261ZM75.0114 23V11.3636H77.4716V20.9716H82.4602V23H75.0114Z" fill="#FF5081"/>
</svg>
