<svg width="32" height="33" viewBox="0 0 32 33" fill="none" xmlns="http://www.w3.org/2000/svg">
<rect y="0.910156" width="32" height="32" rx="8" fill="#10232D"/>
<path d="M24.9525 13.2022C24.9103 12.2458 24.7557 11.5883 24.5341 11.0185C24.3056 10.4137 23.9539 9.87229 23.4932 9.42217C23.0431 8.96505 22.4981 8.60985 21.9003 8.38486C21.3273 8.1633 20.6732 8.00864 19.7168 7.96647C18.7532 7.92073 18.4473 7.91016 16.0035 7.91016C13.5597 7.91016 13.2538 7.92073 12.2938 7.9629C11.3374 8.00507 10.6799 8.15987 10.1102 8.38129C9.50533 8.60985 8.96387 8.96148 8.51375 9.42217C8.05663 9.87229 7.70157 10.4173 7.47644 11.0151C7.25489 11.5883 7.10022 12.2422 7.05806 13.1986C7.01232 14.1622 7.00174 14.4681 7.00174 16.9119C7.00174 19.3558 7.01232 19.6616 7.05448 20.6216C7.09665 21.578 7.25145 22.2356 7.47301 22.8053C7.70157 23.4101 8.05663 23.9515 8.51375 24.4017C8.96387 24.8588 9.5089 25.214 10.1067 25.439C10.6799 25.6605 11.3338 25.8152 12.2904 25.8574C13.2502 25.8997 13.5562 25.9101 16.0001 25.9101C18.4439 25.9101 18.7498 25.8997 19.7098 25.8574C20.6662 25.8152 21.3237 25.6605 21.8933 25.439C23.103 24.9713 24.0594 24.0149 24.5271 22.8053C24.7485 22.2321 24.9033 21.578 24.9455 20.6216C24.9877 19.6616 24.9983 19.3558 24.9983 16.9119C24.9983 14.4681 24.9947 14.1622 24.9525 13.2022ZM23.3316 20.5513C23.2928 21.4304 23.1452 21.9051 23.0221 22.2215C22.7197 23.0057 22.0973 23.6281 21.3131 23.9305C20.9967 24.0536 20.5185 24.2013 19.6429 24.2399C18.6935 24.2822 18.4087 24.2926 16.0071 24.2926C13.6054 24.2926 13.3171 24.2822 12.3711 24.2399C11.492 24.2013 11.0173 24.0536 10.7009 23.9305C10.3106 23.7863 9.95544 23.5577 9.66713 23.2589C9.36825 22.967 9.13968 22.6153 8.99546 22.2251C8.87239 21.9086 8.72473 21.4304 8.68614 20.5549C8.64383 19.6055 8.63339 19.3206 8.63339 16.9189C8.63339 14.5173 8.64383 14.2289 8.68614 13.2831C8.72473 12.404 8.87239 11.9293 8.99546 11.6129C9.13968 11.2225 9.36825 10.8674 9.6707 10.579C9.96245 10.2801 10.3141 10.0515 10.7044 9.90745C11.0209 9.78438 11.4992 9.63672 12.3747 9.59799C13.3241 9.55582 13.609 9.54524 16.0105 9.54524C18.4157 9.54524 18.7005 9.55582 19.6465 9.59799C20.5255 9.63672 21.0002 9.78438 21.3167 9.90745C21.7069 10.0515 22.0621 10.2801 22.3504 10.579C22.6493 10.8709 22.8779 11.2225 23.0221 11.6129C23.1452 11.9293 23.2928 12.4075 23.3316 13.2831C23.3737 14.2325 23.3843 14.5173 23.3843 16.9189C23.3843 19.3206 23.3737 19.6019 23.3316 20.5513Z" fill="#CBE0EF" fill-opacity="0.75"/>
<path d="M16.0046 12.2891C13.4518 12.2891 11.3806 14.3601 11.3806 16.913C11.3806 19.4659 13.4518 21.537 16.0046 21.537C18.5575 21.537 20.6285 19.4659 20.6285 16.913C20.6285 14.3601 18.5575 12.2891 16.0046 12.2891ZM16.0046 19.9125C14.3485 19.9125 13.0052 18.5693 13.0052 16.913C13.0052 15.2568 14.3485 13.9136 16.0046 13.9136C17.6608 13.9136 19.004 15.2568 19.004 16.913C19.004 18.5693 17.6608 19.9125 16.0046 19.9125Z" fill="#CBE0EF" fill-opacity="0.75"/>
</svg>
