<svg width="32" height="33" viewBox="0 0 32 33" fill="none" xmlns="http://www.w3.org/2000/svg">
<rect y="0.910156" width="32" height="32" rx="8" fill="#10232D"/>
<path d="M22.5458 7.91016C23.9011 7.9104 24.9997 9.009 24.9999 10.3643V23.4561C24.9997 24.8113 23.9011 25.9099 22.5458 25.9102H9.45401C8.09875 25.9099 7.00015 24.8113 6.99991 23.4561V10.3643C7.00015 9.009 8.09875 7.9104 9.45401 7.91016H22.5458ZM18.8241 14.8828C17.5695 14.8829 16.9816 15.3423 16.5849 15.9375V15.3457C16.5848 15.2531 16.5478 15.1641 16.4823 15.0986C16.4168 15.0331 16.3279 14.9962 16.2353 14.9961H14.5556C14.5097 14.9961 14.4641 15.0059 14.4218 15.0234C14.3795 15.041 14.3408 15.0662 14.3085 15.0986C14.2762 15.131 14.2508 15.1696 14.2333 15.2119C14.2159 15.2542 14.2069 15.3 14.2069 15.3457V22.1855C14.2069 22.2313 14.2159 22.277 14.2333 22.3193C14.2508 22.3616 14.2762 22.4002 14.3085 22.4326C14.3408 22.465 14.3795 22.4902 14.4218 22.5078C14.4641 22.5254 14.5097 22.5351 14.5556 22.5352H16.2353C16.327 22.5337 16.415 22.4961 16.4794 22.4307C16.5437 22.3653 16.5799 22.2772 16.58 22.1855V18.5176C16.6229 18.0246 16.8405 16.9268 17.9091 16.9268C19.2887 16.9268 19.1493 18.5313 19.1493 19.0059V22.1855C19.1492 22.2314 19.1582 22.277 19.1757 22.3193C19.1932 22.3618 19.2194 22.4001 19.2519 22.4326C19.2843 22.4651 19.3227 22.4913 19.3651 22.5088C19.4076 22.5263 19.4539 22.5353 19.4999 22.5352H21.2382C21.2841 22.5353 21.3296 22.5262 21.372 22.5088C21.4145 22.4913 21.4537 22.4651 21.4862 22.4326C21.5186 22.4002 21.544 22.3616 21.5614 22.3193C21.5789 22.277 21.5879 22.2314 21.5878 22.1855V18.9043C21.5878 17.4786 21.6039 14.8828 18.8241 14.8828ZM11.1405 14.9951C11.0396 14.9951 10.9424 15.0351 10.871 15.1064C10.7997 15.1778 10.7597 15.2751 10.7597 15.376V22.1543C10.7596 22.2042 10.769 22.2537 10.788 22.2998C10.8071 22.346 10.8356 22.3885 10.871 22.4238C10.9062 22.459 10.9481 22.4868 10.994 22.5059C11.0403 22.5249 11.0905 22.5343 11.1405 22.5342H12.7567C12.8066 22.5342 12.8562 22.5249 12.9023 22.5059C12.9484 22.4867 12.991 22.4583 13.0263 22.4229C13.0615 22.3874 13.0894 22.3451 13.1083 22.2988C13.1272 22.2527 13.1369 22.2032 13.1366 22.1533V15.376C13.1366 15.2753 13.0964 15.1778 13.0253 15.1064C12.9542 15.0353 12.8573 14.9954 12.7567 14.9951H11.1405ZM11.9501 11.2852C11.6467 11.2852 11.3498 11.3754 11.0976 11.5439C10.8454 11.7125 10.6492 11.9522 10.5331 12.2324C10.4171 12.5126 10.3861 12.8207 10.4452 13.1182C10.5044 13.4157 10.6506 13.6898 10.8651 13.9043C11.0796 14.1187 11.3529 14.265 11.6503 14.3242C11.9479 14.3834 12.2567 14.3524 12.537 14.2363C12.8172 14.1203 13.0569 13.924 13.2255 13.6719C13.394 13.4196 13.4843 13.1227 13.4843 12.8193C13.4843 12.4125 13.3227 12.0221 13.0351 11.7344C12.7474 11.4467 12.3569 11.2852 11.9501 11.2852Z" fill="#CBE0EF" fill-opacity="0.75"/>
</svg>
