<svg width="170" height="58" viewBox="0 0 170 58" fill="none" xmlns="http://www.w3.org/2000/svg">
<path d="M151.132 34.9131L153.102 39.7754H153.495L155.247 34.9131L159.23 24.0625H164.484L154.152 49.0488C153.627 50.3993 153.029 51.435 152.357 52.1553C151.686 52.8756 150.913 53.3715 150.037 53.6416C149.191 53.9417 148.183 54.0918 147.016 54.0918C146.432 54.0918 145.834 54.0461 145.221 53.9561C144.608 53.896 144.112 53.8065 143.732 53.6865V49.7246H146.753C147.658 49.7246 148.33 49.5895 148.768 49.3193C149.205 49.0792 149.614 48.5534 149.993 47.7432L150.814 45.8359L141.543 24.0625H146.753L151.132 34.9131ZM65.9287 15.8242C68.6138 15.8242 70.7885 16.2894 72.4521 17.2197C74.1449 18.1501 75.371 19.3806 76.1299 20.9111C76.9179 22.4117 77.3124 24.0627 77.3125 25.8633V26.4043H72.6279V25.9092C72.6279 24.6487 72.4232 23.6131 72.0146 22.8027C71.6352 21.9624 70.9346 21.3313 69.9131 20.9111C68.9208 20.461 67.5636 20.2363 65.8418 20.2363C63.6821 20.2363 62.1204 20.5664 61.1572 21.2266C60.194 21.8869 59.7119 22.8777 59.7119 24.1982C59.7119 25.0985 59.8585 25.8192 60.1504 26.3594C60.4715 26.8994 61.011 27.335 61.7695 27.665C62.5575 27.9652 63.6085 28.2802 64.9219 28.6104L69.9131 29.6904C71.7811 30.0506 73.2845 30.621 74.4229 31.4014C75.5902 32.1816 76.4513 33.1419 77.0059 34.2822C77.5604 35.3927 77.8379 36.7135 77.8379 38.2441C77.8379 39.8048 77.4581 41.2458 76.6992 42.5664C75.9404 43.8869 74.7585 44.9375 73.1533 45.7178C71.5772 46.4981 69.5335 46.8877 67.0234 46.8877C64.2218 46.8877 61.9307 46.4831 60.1504 45.6729C58.37 44.8325 57.0416 43.6767 56.166 42.2061C55.3196 40.7055 54.8965 38.9949 54.8965 37.0742V36.3086H59.5371V36.8037C59.5371 38.0342 59.7418 39.0698 60.1504 39.9102C60.5882 40.7504 61.3617 41.3806 62.4707 41.8008C63.5797 42.2209 65.1702 42.4316 67.2422 42.4316C69.402 42.4316 70.9203 42.1156 71.7959 41.4854C72.6713 40.8251 73.1093 39.8051 73.1094 38.4248C73.1094 37.4945 72.9775 36.7441 72.7148 36.1738C72.4522 35.6036 71.9267 35.1375 71.1387 34.7773C70.3799 34.3873 69.2418 34.0422 67.7246 33.7422L62.7334 32.707C61.0405 32.3769 59.6246 31.8661 58.4863 31.1758C57.3481 30.4555 56.4723 29.5401 55.8594 28.4297C55.2757 27.3192 54.9844 25.9834 54.9844 24.4229C54.9844 22.9223 55.3633 21.5268 56.1221 20.2363C56.9101 18.9158 58.1068 17.8504 59.7119 17.04C61.3463 16.2297 63.4188 15.8243 65.9287 15.8242ZM89.2031 23.6123C91.1587 23.6123 92.8816 24.0029 94.3701 24.7832C95.8876 25.5335 97.0549 26.629 97.8721 28.0693C98.7185 29.51 99.1416 31.2511 99.1416 33.292C99.1416 33.8923 99.1121 34.4776 99.0537 35.0479C99.0245 35.5881 98.9812 36.0383 98.9229 36.3984H83.0898C83.1379 37.5912 83.3068 38.6267 83.5996 39.5049C83.979 40.5253 84.6216 41.2906 85.5264 41.8008C86.4311 42.3109 87.6712 42.5664 89.2471 42.5664C91.0857 42.5664 92.3847 42.2662 93.1436 41.666C93.9024 41.0657 94.2822 40.2697 94.2822 39.2793V38.9199H98.9668V39.3252C98.9667 40.8557 98.5584 42.1916 97.7412 43.332C96.924 44.4424 95.7853 45.3121 94.3262 45.9424C92.896 46.5727 91.1879 46.8877 89.2031 46.8877C86.8391 46.8876 84.869 46.4076 83.293 45.4473C81.717 44.4568 80.5499 43.0913 79.791 41.3506C79.0321 39.5798 78.6523 37.5386 78.6523 35.2275C78.6524 32.9167 79.0755 30.891 79.9219 29.1504C80.7975 27.4096 82.0235 26.0591 83.5996 25.0986C85.1756 24.1082 87.0434 23.6124 89.2031 23.6123ZM105.935 46.4375H101.206V16.2744H105.935V46.4375ZM113.761 46.4375H109.032V16.2744H113.761V46.4375ZM127.283 23.6123C128.83 23.6123 130.056 23.9582 130.961 24.6484C131.895 25.3387 132.566 26.2542 132.975 27.3945C133.383 28.5349 133.588 29.8103 133.588 31.2207V32.707H128.859V31.8066C128.859 30.3063 128.611 29.2556 128.115 28.6553C127.619 28.055 126.684 27.7549 125.312 27.7549C123.882 27.7549 122.861 28.07 122.248 28.7002C121.737 29.2254 121.45 30.0952 121.386 31.3096L121.372 31.8516V46.4375H116.645V23.9277H120.979V27.4844H121.197C121.635 26.4339 122.35 25.5335 123.343 24.7832C124.364 24.0029 125.678 23.6123 127.283 23.6123ZM139.99 46.4375H135.262V16.2744H139.99V46.4375ZM89.0723 27.665C86.7665 27.665 85.1902 28.2653 84.3438 29.4658C83.664 30.4059 83.2578 31.6364 83.124 33.1572H94.6162C94.6682 31.98 94.5137 31.0043 94.1504 30.2305C93.771 29.3604 93.1439 28.7151 92.2686 28.2949C91.4221 27.8747 90.3564 27.6651 89.0723 27.665Z" fill="white"/>
<path d="M34.7938 14.1505H34.343C34.343 8.49957 29.8782 3.9082 24.3831 3.9082C18.888 3.9082 14.4232 8.49957 14.4232 14.1505H13.9725C8.99253 14.1505 5 18.2783 5 23.3553V41.3014C5 46.3784 8.99253 50.4841 13.9295 50.4841H21.9146V46.0693H15.1316C11.9118 46.0693 9.29305 43.3763 9.29305 40.0652V38.1006H13.5861V40.0652C13.5861 40.9482 14.273 41.6545 15.1316 41.6545H33.5702C34.4288 41.6545 35.1157 40.9482 35.1157 40.0652V36.1361C35.1157 35.2531 34.4288 34.5468 33.5702 34.5468H15.1316C11.9118 34.5468 9.29305 31.8537 9.29305 28.5427V24.6135C9.29305 21.3024 11.9118 18.6094 15.1316 18.6094H21.9146V14.1946H18.6734C18.6734 10.9718 21.2277 8.36713 24.3402 8.36713C27.4526 8.36713 30.007 10.9939 30.007 14.1946H26.5482V18.6094H33.5488C36.7686 18.6094 39.3873 21.3024 39.3873 24.6135V26.5781H35.0943V24.6135C35.0943 23.7306 34.4074 23.0242 33.5488 23.0242H15.1316C14.273 23.0242 13.5861 23.7306 13.5861 24.6135V28.5427C13.5861 29.4256 14.273 30.132 15.1316 30.132H33.5702C36.79 30.132 39.4088 32.825 39.4088 36.1361V40.0652C39.4088 43.3763 36.79 46.0693 33.5702 46.0693H26.5696V50.4841H34.7723C39.7093 50.4841 43.7018 46.3784 43.7018 41.3014V23.3553C43.7018 18.2783 39.7308 14.1505 34.7938 14.1505Z" fill="url(#paint0_linear_555_1579)"/>
<defs>
<linearGradient id="paint0_linear_555_1579" x1="43.6918" y1="47.8676" x2="4.13243" y2="15.8888" gradientUnits="userSpaceOnUse">
<stop stop-color="#FF4F81"/>
<stop offset="1" stop-color="#8A00E6"/>
</linearGradient>
</defs>
</svg>
