<svg width="108" height="137" viewBox="0 0 108 137" fill="none" xmlns="http://www.w3.org/2000/svg">
<path d="M3.0091 97.0152C4.66596 97.0152 6.0091 98.3583 6.0091 100.015V133.015C6.00891 134.672 4.66584 136.015 3.0091 136.015C1.35256 136.015 0.00929478 134.672 0.00910072 133.015V100.015C0.00910072 98.3585 1.35244 97.0154 3.0091 97.0152ZM28.0091 85.0152C29.666 85.0152 31.0091 86.3583 31.0091 88.0152V133.015C31.0089 134.672 29.6658 136.015 28.0091 136.015C26.3526 136.015 25.0093 134.672 25.0091 133.015V88.0152C25.0091 86.3585 26.3524 85.0154 28.0091 85.0152ZM54.0091 74.0152C55.666 74.0152 57.0091 75.3583 57.0091 77.0152V133.015C57.0089 134.672 55.6658 136.015 54.0091 136.015C52.3526 136.015 51.0093 134.672 51.0091 133.015V77.0152C51.0091 75.3585 52.3524 74.0154 54.0091 74.0152ZM79.0091 59.0152C80.666 59.0152 82.0091 60.3583 82.0091 62.0152V133.015C82.0089 134.672 80.6658 136.015 79.0091 136.015C77.3526 136.015 76.0093 134.672 76.0091 133.015V62.0152C76.0091 60.3585 77.3524 59.0154 79.0091 59.0152ZM105.009 48.0152C106.666 48.0152 108.009 49.3583 108.009 51.0152V133.015C108.009 134.672 106.666 136.015 105.009 136.015C103.353 136.015 102.009 134.672 102.009 133.015V51.0152C102.009 49.3585 103.352 48.0154 105.009 48.0152ZM76.3353 2.19292C76.8225 0.609436 78.5018 -0.279477 80.0853 0.207567L105.891 8.148C107.474 8.63522 108.363 10.3135 107.876 11.897L99.9359 37.7037C99.4484 39.2867 97.7701 40.1759 96.1868 39.689C94.6036 39.2017 93.7146 37.5224 94.2015 35.939L100.011 17.0552L4.41242 67.6665C2.94828 68.4412 1.13286 67.8825 0.357734 66.4185C-0.417196 64.9544 0.141912 63.1391 1.60578 62.3638L97.2034 11.7525L78.3206 5.94194C76.7376 5.45456 75.8486 3.77608 76.3353 2.19292Z" fill="#252638"/>
</svg>
