<svg width="185" height="184" viewBox="0 0 185 184" fill="none" xmlns="http://www.w3.org/2000/svg">
<path d="M41.0107 109.016C42.6673 109.016 44.0105 110.359 44.0107 112.016V145.016C44.0107 146.672 42.6674 148.015 41.0107 148.016C39.3539 148.016 38.0107 146.672 38.0107 145.016V112.016C38.0109 110.359 39.354 109.016 41.0107 109.016ZM66.0107 97.0156C67.6673 97.0159 69.0105 98.3591 69.0107 100.016V145.016C69.0107 146.672 67.6674 148.015 66.0107 148.016C64.3539 148.016 63.0107 146.672 63.0107 145.016V100.016C63.0109 98.3589 64.354 97.0156 66.0107 97.0156ZM92.0107 86.0156C93.6673 86.0159 95.0105 87.3591 95.0107 89.0156V145.016C95.0107 146.672 93.6674 148.015 92.0107 148.016C90.3539 148.016 89.0107 146.672 89.0107 145.016V89.0156C89.0109 87.3589 90.354 86.0156 92.0107 86.0156ZM117.011 71.0156C118.667 71.0159 120.011 72.3591 120.011 74.0156V145.016C120.011 146.672 118.667 148.015 117.011 148.016C115.354 148.016 114.011 146.672 114.011 145.016V74.0156C114.011 72.3589 115.354 71.0156 117.011 71.0156ZM143.011 60.0156C144.667 60.0159 146.011 61.3591 146.011 63.0156V145.016C146.011 146.672 144.667 148.015 143.011 148.016C141.354 148.016 140.011 146.672 140.011 145.016V63.0156C140.011 61.3589 141.354 60.0156 143.011 60.0156ZM114.337 14.1934C114.824 12.6101 116.504 11.7208 118.087 12.208L143.893 20.1484C145.476 20.6357 146.365 22.3142 145.878 23.8975L137.938 49.7041C137.45 51.2873 135.772 52.1762 134.188 51.6895C132.605 51.2022 131.716 49.523 132.203 47.9395L138.013 29.0557L42.4141 79.667C40.9498 80.442 39.1345 79.8832 38.3594 78.4189C37.5845 76.9547 38.1432 75.1394 39.6074 74.3643L135.205 23.7529L116.322 17.9424C114.739 17.4551 113.85 15.7767 114.337 14.1934Z" fill="#252638"/>
</svg>
