<svg width="185" height="184" viewBox="0 0 185 184" fill="none" xmlns="http://www.w3.org/2000/svg">
<path d="M41.0102 109.015C42.667 109.015 44.0102 110.358 44.0102 112.015V145.015C44.0102 146.672 42.667 148.015 41.0102 148.015C39.3533 148.015 38.0102 146.672 38.0102 145.015V112.015C38.0102 110.358 39.3533 109.015 41.0102 109.015ZM66.0102 97.0153C67.667 97.0153 69.0102 98.3584 69.0102 100.015V145.015C69.0102 146.672 67.667 148.015 66.0102 148.015C64.3533 148.015 63.0102 146.672 63.0102 145.015V100.015C63.0102 98.3584 64.3533 97.0153 66.0102 97.0153ZM92.0102 86.0153C93.667 86.0153 95.0102 87.3584 95.0102 89.0153V145.015C95.0102 146.672 93.667 148.015 92.0102 148.015C90.3533 148.015 89.0102 146.672 89.0102 145.015V89.0153C89.0102 87.3584 90.3533 86.0153 92.0102 86.0153ZM117.01 71.0153C118.667 71.0153 120.01 72.3584 120.01 74.0153V145.015C120.01 146.672 118.667 148.015 117.01 148.015C115.353 148.015 114.01 146.672 114.01 145.015V74.0153C114.01 72.3584 115.353 71.0153 117.01 71.0153ZM143.01 60.0153C144.667 60.0153 146.01 61.3584 146.01 63.0153V145.015C146.01 146.672 144.667 148.015 143.01 148.015C141.353 148.015 140.01 146.672 140.01 145.015V63.0153C140.01 61.3584 141.353 60.0153 143.01 60.0153ZM114.336 14.193C114.824 12.6094 116.503 11.7204 118.086 12.2076L143.892 20.1481C145.475 20.6353 146.364 22.3136 145.877 23.8971L137.937 49.7037C137.45 51.287 135.771 52.176 134.188 51.6891C132.604 51.2018 131.715 49.5227 132.203 47.9391L138.012 29.0553L42.4135 79.6666C40.9492 80.4416 39.134 79.8828 38.3588 78.4186C37.5838 76.9543 38.1426 75.1391 39.6069 74.3639L135.205 23.7526L116.322 17.942C114.738 17.4547 113.849 15.7764 114.336 14.193Z" fill="url(#paint0_linear_249_5478)"/>
<defs>
<linearGradient id="paint0_linear_249_5478" x1="92.0102" y1="12.0742" x2="92.0102" y2="148.015" gradientUnits="userSpaceOnUse">
<stop stop-color="#00090D"/>
<stop offset="0.5" stop-color="#00101A"/>
<stop offset="1" stop-color="#00101A"/>
</linearGradient>
</defs>
</svg>
