<svg width="120" height="34" viewBox="0 0 120 34" fill="none" xmlns="http://www.w3.org/2000/svg">
<rect width="120" height="34" rx="8" fill="#CBE0EF" fill-opacity="0.1"/>
<rect x="0.5" y="0.5" width="119" height="33" rx="7.5" stroke="#CBE0EF" stroke-opacity="0.15"/>
<path d="M15 19.916L15 24.5827" stroke="url(#paint0_linear_239_3015)" stroke-width="2" stroke-linecap="round"/>
<path d="M22 14.082L22 24.582" stroke="url(#paint1_linear_239_3015)" stroke-width="2" stroke-linecap="round"/>
<path d="M29 9.41602L29 24.5827" stroke="url(#paint2_linear_239_3015)" stroke-width="2" stroke-linecap="round"/>
<path d="M39.0114 23V11.3636H43.6023C44.4811 11.3636 45.2311 11.5208 45.8523 11.8352C46.4773 12.1458 46.9527 12.5871 47.2784 13.1591C47.608 13.7273 47.7727 14.3958 47.7727 15.1648C47.7727 15.9375 47.6061 16.6023 47.2727 17.1591C46.9394 17.7121 46.4564 18.1364 45.8239 18.4318C45.1951 18.7273 44.4337 18.875 43.5398 18.875H40.4659V16.8977H43.142C43.6117 16.8977 44.0019 16.8333 44.3125 16.7045C44.6231 16.5758 44.8542 16.3826 45.0057 16.125C45.161 15.8674 45.2386 15.5473 45.2386 15.1648C45.2386 14.7784 45.161 14.4527 45.0057 14.1875C44.8542 13.9223 44.6212 13.7216 44.3068 13.5852C43.9962 13.4451 43.6042 13.375 43.1307 13.375H41.4716V23H39.0114ZM45.2955 17.7045L48.1875 23H45.4716L42.642 17.7045H45.2955ZM49.5114 23V11.3636H57.3523V13.392H51.9716V16.1648H56.9489V18.1932H51.9716V20.9716H57.375V23H49.5114ZM65.6207 14.7102C65.5753 14.2519 65.3802 13.8958 65.0355 13.642C64.6908 13.3883 64.223 13.2614 63.6321 13.2614C63.2306 13.2614 62.8916 13.3182 62.6151 13.4318C62.3385 13.5417 62.1264 13.6951 61.9787 13.892C61.8348 14.089 61.7628 14.3125 61.7628 14.5625C61.7552 14.7708 61.7988 14.9527 61.8935 15.108C61.992 15.2633 62.1264 15.3977 62.2969 15.5114C62.4673 15.6212 62.6643 15.7178 62.8878 15.8011C63.1113 15.8807 63.3499 15.9489 63.6037 16.0057L64.6491 16.2557C65.1567 16.3693 65.6226 16.5208 66.0469 16.7102C66.4711 16.8996 66.8385 17.1326 67.1491 17.4091C67.4598 17.6856 67.7003 18.0114 67.8707 18.3864C68.045 18.7614 68.134 19.1913 68.1378 19.6761C68.134 20.3883 67.9522 21.0057 67.5923 21.5284C67.2363 22.0473 66.7211 22.4508 66.0469 22.7386C65.3764 23.0227 64.5677 23.1648 63.6207 23.1648C62.6813 23.1648 61.8632 23.0208 61.1662 22.733C60.473 22.4451 59.9313 22.0189 59.5412 21.4545C59.1548 20.8864 58.9522 20.1837 58.9332 19.3466H61.3139C61.3404 19.7367 61.4522 20.0625 61.6491 20.3239C61.8499 20.5814 62.117 20.7765 62.4503 20.9091C62.7874 21.0379 63.1681 21.1023 63.5923 21.1023C64.009 21.1023 64.3707 21.0417 64.6776 20.9205C64.9882 20.7992 65.2287 20.6307 65.3991 20.4148C65.5696 20.1989 65.6548 19.9508 65.6548 19.6705C65.6548 19.4091 65.5772 19.1894 65.4219 19.0114C65.2704 18.8333 65.0469 18.6818 64.7514 18.5568C64.4598 18.4318 64.1018 18.3182 63.6776 18.2159L62.4105 17.8977C61.4295 17.6591 60.6548 17.286 60.0866 16.7784C59.5185 16.2708 59.2363 15.5871 59.2401 14.7273C59.2363 14.0227 59.4238 13.4072 59.8026 12.8807C60.1851 12.3542 60.7098 11.9432 61.3764 11.6477C62.0431 11.3523 62.8007 11.2045 63.6491 11.2045C64.5128 11.2045 65.2666 11.3523 65.9105 11.6477C66.5582 11.9432 67.062 12.3542 67.4219 12.8807C67.7817 13.4072 67.9673 14.017 67.9787 14.7102H65.6207ZM76.9801 11.3636H79.4403V18.9205C79.4403 19.7689 79.2377 20.5114 78.8324 21.1477C78.4309 21.7841 77.8684 22.2803 77.1449 22.6364C76.4214 22.9886 75.5786 23.1648 74.6165 23.1648C73.6506 23.1648 72.8059 22.9886 72.0824 22.6364C71.3589 22.2803 70.7964 21.7841 70.3949 21.1477C69.9934 20.5114 69.7926 19.7689 69.7926 18.9205V11.3636H72.2528V18.7102C72.2528 19.1534 72.3494 19.5473 72.5426 19.892C72.7396 20.2367 73.0161 20.5076 73.3722 20.7045C73.7282 20.9015 74.143 21 74.6165 21C75.0938 21 75.5085 20.9015 75.8608 20.7045C76.2169 20.5076 76.4915 20.2367 76.6847 19.892C76.8816 19.5473 76.9801 19.1534 76.9801 18.7102V11.3636ZM81.4645 23V11.3636H83.9247V20.9716H88.9134V23H81.4645ZM88.6463 13.392V11.3636H98.2031V13.392H94.6406V23H92.2088V13.392H88.6463ZM106.089 14.7102C106.044 14.2519 105.849 13.8958 105.504 13.642C105.16 13.3883 104.692 13.2614 104.101 13.2614C103.699 13.2614 103.36 13.3182 103.084 13.4318C102.807 13.5417 102.595 13.6951 102.447 13.892C102.304 14.089 102.232 14.3125 102.232 14.5625C102.224 14.7708 102.268 14.9527 102.362 15.108C102.461 15.2633 102.595 15.3977 102.766 15.5114C102.936 15.6212 103.133 15.7178 103.357 15.8011C103.58 15.8807 103.819 15.9489 104.072 16.0057L105.118 16.2557C105.625 16.3693 106.091 16.5208 106.516 16.7102C106.94 16.8996 107.307 17.1326 107.618 17.4091C107.929 17.6856 108.169 18.0114 108.339 18.3864C108.514 18.7614 108.603 19.1913 108.607 19.6761C108.603 20.3883 108.421 21.0057 108.061 21.5284C107.705 22.0473 107.19 22.4508 106.516 22.7386C105.845 23.0227 105.036 23.1648 104.089 23.1648C103.15 23.1648 102.332 23.0208 101.635 22.733C100.942 22.4451 100.4 22.0189 100.01 21.4545C99.6236 20.8864 99.4209 20.1837 99.402 19.3466H101.783C101.809 19.7367 101.921 20.0625 102.118 20.3239C102.319 20.5814 102.586 20.7765 102.919 20.9091C103.256 21.0379 103.637 21.1023 104.061 21.1023C104.478 21.1023 104.839 21.0417 105.146 20.9205C105.457 20.7992 105.697 20.6307 105.868 20.4148C106.038 20.1989 106.124 19.9508 106.124 19.6705C106.124 19.4091 106.046 19.1894 105.891 19.0114C105.739 18.8333 105.516 18.6818 105.22 18.5568C104.929 18.4318 104.571 18.3182 104.146 18.2159L102.879 17.8977C101.898 17.6591 101.124 17.286 100.555 16.7784C99.9872 16.2708 99.705 15.5871 99.7088 14.7273C99.705 14.0227 99.8925 13.4072 100.271 12.8807C100.654 12.3542 101.179 11.9432 101.845 11.6477C102.512 11.3523 103.269 11.2045 104.118 11.2045C104.982 11.2045 105.735 11.3523 106.379 11.6477C107.027 11.9432 107.531 12.3542 107.891 12.8807C108.25 13.4072 108.436 14.017 108.447 14.7102H106.089Z" fill="url(#paint3_linear_239_3015)"/>
<defs>
<linearGradient id="paint0_linear_239_3015" x1="15" y1="22.2493" x2="14" y2="22.2493" gradientUnits="userSpaceOnUse">
<stop stop-color="#9067FF"/>
<stop offset="1" stop-color="#11B5E4"/>
</linearGradient>
<linearGradient id="paint1_linear_239_3015" x1="22" y1="19.332" x2="21" y2="19.332" gradientUnits="userSpaceOnUse">
<stop stop-color="#9067FF"/>
<stop offset="1" stop-color="#11B5E4"/>
</linearGradient>
<linearGradient id="paint2_linear_239_3015" x1="29" y1="16.9993" x2="28" y2="16.9993" gradientUnits="userSpaceOnUse">
<stop stop-color="#9067FF"/>
<stop offset="1" stop-color="#11B5E4"/>
</linearGradient>
<linearGradient id="paint3_linear_239_3015" x1="74" y1="5" x2="74" y2="29" gradientUnits="userSpaceOnUse">
<stop stop-color="#9067FF"/>
<stop offset="1" stop-color="#11B5E4"/>
</linearGradient>
</defs>
</svg>
