<svg width="79" height="26" viewBox="0 0 79 26" fill="none" xmlns="http://www.w3.org/2000/svg">
<path d="M72.3857 15.5312L73.3613 17.9639H73.5566L74.4238 15.5312L76.3975 10.1025H79L73.8818 22.6045C73.6216 23.2802 73.3257 23.7988 72.9932 24.1592C72.6607 24.5195 72.2773 24.7672 71.8438 24.9023C71.4245 25.0525 70.925 25.127 70.3467 25.127C70.0577 25.1269 69.7615 25.1046 69.458 25.0596C69.1546 25.0296 68.9086 24.9848 68.7207 24.9248V22.9424H70.2168C70.665 22.9424 70.998 22.8744 71.2148 22.7393C71.4315 22.619 71.6335 22.3563 71.8213 21.9512L72.2285 20.9961L67.6357 10.1025H70.2168L72.3857 15.5312ZM30.1807 5.98047C31.5107 5.98047 32.588 6.21326 33.4121 6.67871C34.2506 7.1442 34.8585 7.75961 35.2344 8.52539C35.6247 9.27625 35.8193 10.1029 35.8193 11.0039V11.2744H33.499V11.0264C33.499 10.3956 33.3977 9.87714 33.1953 9.47168C33.0073 9.05132 32.6602 8.73559 32.1543 8.52539C31.6628 8.30025 30.9905 8.1875 30.1377 8.1875C29.0679 8.1875 28.2945 8.35323 27.8174 8.68359C27.3403 9.01393 27.1016 9.50929 27.1016 10.1699C27.1016 10.6202 27.1739 10.9807 27.3184 11.251C27.4774 11.5213 27.7452 11.7391 28.1211 11.9043C28.5114 12.0545 29.0321 12.2128 29.6826 12.3779L32.1543 12.918C33.0796 13.0982 33.8248 13.384 34.3887 13.7744C34.9668 14.1648 35.3933 14.6453 35.668 15.2158C35.9427 15.7715 36.0801 16.4324 36.0801 17.1982C36.0801 17.9791 35.8915 18.6996 35.5156 19.3604C35.1398 20.021 34.5548 20.5471 33.7598 20.9375C32.9791 21.3279 31.9668 21.5234 30.7236 21.5234C29.3357 21.5234 28.2003 21.3205 27.3184 20.915C26.4365 20.4946 25.7784 19.9165 25.3447 19.1807C24.9255 18.4298 24.7158 17.5734 24.7158 16.6123V16.2295H27.0146V16.4775C27.0147 17.093 27.1161 17.6109 27.3184 18.0312C27.5352 18.4517 27.9185 18.7673 28.4678 18.9775C29.0172 19.1878 29.8055 19.293 30.832 19.293C31.9015 19.2929 32.6532 19.1355 33.0869 18.8203C33.5206 18.4899 33.7373 17.9789 33.7373 17.2881C33.7373 16.8228 33.673 16.4474 33.543 16.1621C33.4128 15.8768 33.1521 15.6441 32.7617 15.4639C32.3858 15.2686 31.8221 15.0955 31.0703 14.9453L28.5977 14.4277C27.7592 14.2625 27.0579 14.0075 26.4941 13.6621C25.9304 13.3018 25.497 12.8435 25.1934 12.2881C24.9043 11.7325 24.7598 11.0639 24.7598 10.2832C24.7598 9.53234 24.9473 8.83324 25.3232 8.1875C25.7136 7.52691 26.3066 6.99427 27.1016 6.58887C27.9111 6.18345 28.9375 5.98052 30.1807 5.98047ZM41.71 9.87695C42.6785 9.87696 43.5313 10.0726 44.2686 10.4629C45.0204 10.8383 45.5991 11.3866 46.0039 12.1074C46.4232 12.8282 46.6328 13.6996 46.6328 14.7207C46.6328 15.0208 46.6187 15.3135 46.5898 15.5986C46.5754 15.8688 46.5533 16.0943 46.5244 16.2744H38.6816C38.7054 16.8713 38.7885 17.3897 38.9336 17.8291C39.1215 18.3397 39.4405 18.7222 39.8887 18.9775C40.3368 19.2327 40.9509 19.3603 41.7314 19.3604C42.6423 19.3604 43.2862 19.2105 43.6621 18.9102C44.0377 18.6099 44.2255 18.212 44.2256 17.7168V17.5361H46.5459V17.7393C46.5458 18.5049 46.3431 19.1727 45.9385 19.7432C45.5337 20.2988 44.97 20.7344 44.2471 21.0498C43.5387 21.3652 42.6931 21.5234 41.71 21.5234C40.539 21.5234 39.5629 21.2832 38.7822 20.8027C38.0016 20.3072 37.4228 19.6238 37.0469 18.7529C36.671 17.867 36.4834 16.8456 36.4834 15.6895C36.4834 14.5333 36.6931 13.5194 37.1123 12.6484C37.5459 11.7776 38.1531 11.1016 38.9336 10.6211C39.7143 10.1255 40.6401 9.87695 41.71 9.87695ZM49.998 21.2979H47.6553V6.20605H49.998V21.2979ZM53.874 21.2979H51.5322V6.20605H53.874V21.2979ZM60.5723 9.87695C61.3384 9.87695 61.9454 10.0502 62.3936 10.3955C62.8562 10.7409 63.1892 11.1989 63.3916 11.7695C63.594 12.3402 63.6953 12.9788 63.6953 13.6846V14.4277H61.3535V13.9766C61.3535 13.226 61.23 12.7007 60.9844 12.4004C60.7386 12.1001 60.276 11.9502 59.5967 11.9502C58.8883 11.9502 58.3817 12.1075 58.0781 12.4229C57.8252 12.6857 57.683 13.1209 57.6514 13.7285L57.6445 14V21.2979H55.3027V10.0352H57.4492V11.8145H57.5576C57.7745 11.2889 58.1287 10.8383 58.6201 10.4629C59.1261 10.0725 59.7771 9.87696 60.5723 9.87695ZM66.8672 21.2979H64.5244V6.20605H66.8672V21.2979ZM41.6445 11.9043C40.5026 11.9043 39.722 12.2051 39.3027 12.8057C38.9661 13.2759 38.7675 13.8917 38.7012 14.6523H44.3906C44.4163 14.0636 44.3401 13.5756 44.1602 13.1885C43.9722 12.7531 43.6612 12.4299 43.2275 12.2197C42.8083 12.0096 42.2804 11.9043 41.6445 11.9043Z" fill="white"/>
<path d="M14.7581 5.25168H14.5349C14.5349 2.42425 12.3233 0.126953 9.6013 0.126953C6.87933 0.126953 4.66774 2.42425 4.66774 5.25168H4.44445C1.97768 5.25168 0 7.31704 0 9.85731V18.8366C0 21.3769 1.97768 23.4312 4.42319 23.4312H8.37854V21.2223H5.01862C3.42372 21.2223 2.12653 19.8748 2.12653 18.2181V17.2352H4.25307V18.2181C4.25307 18.6599 4.59331 19.0133 5.01862 19.0133H14.1521C14.5774 19.0133 14.9176 18.6599 14.9176 18.2181V16.2522C14.9176 15.8104 14.5774 15.457 14.1521 15.457H5.01862C3.42372 15.457 2.12653 14.1095 2.12653 12.4528V10.4869C2.12653 8.83016 3.42372 7.4827 5.01862 7.4827H8.37854V5.27377H6.77301C6.77301 3.66125 8.03829 2.35798 9.58003 2.35798C11.1218 2.35798 12.3871 3.67229 12.3871 5.27377H10.5998V7.4827H14.1414C15.7363 7.4827 17.0335 8.83016 17.0335 10.4869V11.4698H14.907V10.4869C14.907 10.0451 14.5667 9.69164 14.1414 9.69164H5.01862C4.59331 9.69164 4.25307 10.0451 4.25307 10.4869V12.4528C4.25307 12.8946 4.59331 13.248 5.01862 13.248H14.1521C15.747 13.248 17.0442 14.5955 17.0442 16.2522V18.2181C17.0442 19.8748 15.747 21.2223 14.1521 21.2223H10.6104V23.4312H14.7475C17.193 23.4312 19.1707 21.3769 19.1707 18.8366V9.85731C19.1707 7.31704 17.2037 5.25168 14.7581 5.25168Z" fill="url(#paint0_linear_555_494)"/>
<defs>
<linearGradient id="paint0_linear_555_494" x1="19.1657" y1="22.122" x2="-0.585181" y2="6.31568" gradientUnits="userSpaceOnUse">
<stop stop-color="#FF4F81"/>
<stop offset="1" stop-color="#8A00E6"/>
</linearGradient>
</defs>
</svg>
