<svg width="281" height="60" viewBox="0 0 281 60" fill="none" xmlns="http://www.w3.org/2000/svg">
<path d="M194.449 35.0566L196.043 38.9492H196.361L197.778 35.0566L201.001 26.3711H205.25L196.893 46.374C196.468 47.4549 195.984 48.2838 195.441 48.8604C194.898 49.4369 194.273 49.8335 193.564 50.0498C192.88 50.2901 192.065 50.4101 191.121 50.4102C190.649 50.4102 190.165 50.3748 189.669 50.3027C189.173 50.2547 188.772 50.182 188.465 50.0859V46.9141H190.908C191.64 46.9141 192.183 46.8061 192.537 46.5898C192.891 46.3976 193.221 45.9769 193.528 45.3281L194.192 43.8008L186.694 26.3711H190.908L194.449 35.0566ZM125.533 19.7754C127.705 19.7754 129.464 20.1478 130.81 20.8926C132.179 21.6373 133.17 22.6224 133.784 23.8477C134.422 25.049 134.74 26.3708 134.74 27.8125V28.2451H130.951V27.8486C130.951 26.8395 130.787 26.0101 130.456 25.3613C130.149 24.6887 129.582 24.184 128.756 23.8477C127.953 23.4873 126.856 23.3076 125.463 23.3076C123.716 23.3076 122.453 23.572 121.674 24.1006C120.895 24.6291 120.505 25.4215 120.505 26.4785C120.505 27.1993 120.623 27.7765 120.859 28.209C121.119 28.6413 121.555 28.9897 122.169 29.2539C122.806 29.4942 123.657 29.7465 124.719 30.0107L128.756 30.876C130.267 31.1643 131.483 31.6205 132.403 32.2451C133.348 32.8698 134.045 33.6388 134.493 34.5518C134.942 35.4407 135.166 36.4983 135.166 37.7236C135.166 38.973 134.859 40.1264 134.245 41.1836C133.631 42.2408 132.675 43.0823 131.377 43.707C130.102 44.3317 128.449 44.6435 126.419 44.6436C124.153 44.6436 122.299 44.3195 120.859 43.6709C119.419 42.9981 118.345 42.0728 117.637 40.8955C116.952 39.6942 116.609 38.3247 116.609 36.7871V36.1738H120.363V36.5703C120.363 37.5554 120.529 38.3848 120.859 39.0576C121.214 39.7302 121.839 40.235 122.736 40.5713C123.633 40.9076 124.92 41.0762 126.596 41.0762C128.343 41.0762 129.57 40.8229 130.278 40.3184C130.987 39.7898 131.341 38.9734 131.341 37.8682C131.341 37.1235 131.235 36.5229 131.022 36.0664C130.81 35.6099 130.385 35.2366 129.748 34.9482C129.134 34.6359 128.213 34.3604 126.985 34.1201L122.948 33.291C121.579 33.0267 120.434 32.618 119.514 32.0654C118.593 31.4888 117.884 30.7561 117.389 29.8672C116.917 28.9782 116.681 27.9086 116.681 26.6592C116.681 25.4578 116.988 24.3408 117.602 23.3076C118.239 22.2504 119.206 21.3968 120.505 20.748C121.827 20.0994 123.503 19.7754 125.533 19.7754ZM144.359 26.0107C145.941 26.0108 147.334 26.3226 148.538 26.9473C149.766 27.5479 150.71 28.4249 151.371 29.5781C152.056 30.7314 152.397 32.1259 152.397 33.7598C152.397 34.2402 152.374 34.7087 152.327 35.165C152.304 35.5974 152.268 35.9578 152.221 36.2461H139.414C139.453 37.201 139.589 38.0304 139.826 38.7334C140.133 39.5502 140.653 40.1629 141.385 40.5713C142.117 40.9796 143.12 41.1836 144.395 41.1836C145.882 41.1836 146.932 40.9434 147.546 40.4629C148.16 39.9823 148.467 39.3456 148.467 38.5527V38.2646H152.256V38.5889C152.256 39.8143 151.926 40.8838 151.265 41.7969C150.604 42.6858 149.682 43.3822 148.502 43.8867C147.345 44.3912 145.964 44.6435 144.359 44.6436C142.447 44.6436 140.853 44.2591 139.578 43.4902C138.303 42.6974 137.359 41.6044 136.745 40.2109C136.131 38.7934 135.824 37.1595 135.824 35.3096C135.824 33.4595 136.167 31.837 136.852 30.4434C137.56 29.0499 138.551 27.969 139.826 27.2002C141.101 26.4073 142.612 26.0107 144.359 26.0107ZM157.892 44.2832H154.067V20.1357H157.892V44.2832ZM164.222 44.2832H160.397V20.1357H164.222V44.2832ZM175.16 26.0107C176.411 26.0108 177.403 26.2873 178.135 26.8398C178.89 27.3924 179.433 28.1252 179.764 29.0381C180.094 29.9511 180.259 30.9724 180.259 32.1016V33.291H176.435V32.5703C176.435 31.3689 176.233 30.5274 175.832 30.0469C175.431 29.5666 174.676 29.3262 173.566 29.3262C172.41 29.3262 171.583 29.5784 171.087 30.083C170.674 30.5036 170.441 31.2003 170.39 32.1729L170.379 32.6064V44.2832H166.555V26.2627H170.061V29.1104H170.237C170.591 28.2694 171.17 27.548 171.973 26.9473C172.799 26.3226 173.862 26.0107 175.16 26.0107ZM185.438 44.2832H181.613V20.1357H185.438V44.2832ZM144.253 29.2539C142.388 29.2539 141.113 29.7352 140.429 30.6963C139.879 31.4489 139.55 32.4337 139.441 33.6514H148.737C148.779 32.709 148.654 31.9281 148.36 31.3086C148.053 30.6118 147.546 30.0952 146.838 29.7588C146.153 29.4224 145.292 29.2539 144.253 29.2539Z" fill="white"/>
<path d="M100.349 18.6097H99.984C99.984 14.0858 96.3727 10.4102 91.9279 10.4102C87.4832 10.4102 83.8719 14.0858 83.8719 18.6097H83.5073C79.4792 18.6097 76.2499 21.9143 76.2499 25.9787V40.3456C76.2499 44.4101 79.4792 47.697 83.4726 47.697H89.9313V44.1627H84.4448C81.8405 44.1627 79.7223 42.0068 79.7223 39.356V37.7833H83.1948V39.356C83.1948 40.0629 83.7503 40.6284 84.4448 40.6284H99.359C100.053 40.6284 100.609 40.0629 100.609 39.356V36.2105C100.609 35.5037 100.053 34.9382 99.359 34.9382H84.4448C81.8405 34.9382 79.7223 32.7822 79.7223 30.1315V26.986C79.7223 24.3353 81.8405 22.1794 84.4448 22.1794H89.9313V18.6451H87.3096C87.3096 16.065 89.3757 13.9798 91.8932 13.9798C94.4107 13.9798 96.4768 16.0827 96.4768 18.6451H93.5584V22.1794H99.3416C101.946 22.1794 104.064 24.3353 104.064 26.986V28.5588H100.592V26.986C100.592 26.2791 100.036 25.7137 99.3416 25.7137H84.4448C83.7503 25.7137 83.1948 26.2791 83.1948 26.986V30.1315C83.1948 30.8384 83.7503 31.4039 84.4448 31.4039H99.359C101.963 31.4039 104.081 33.5598 104.081 36.2105V39.356C104.081 42.0068 101.963 44.1627 99.359 44.1627H93.5757V47.697H100.331C104.325 47.697 107.554 44.4101 107.554 40.3456V25.9787C107.554 21.9143 104.342 18.6097 100.349 18.6097Z" fill="url(#paint0_linear_463_1679)"/>
<defs>
<linearGradient id="paint0_linear_463_1679" x1="107.546" y1="45.6023" x2="75.8093" y2="19.6816" gradientUnits="userSpaceOnUse">
<stop stop-color="#FF4F81"/>
<stop offset="1" stop-color="#8A00E6"/>
</linearGradient>
</defs>
</svg>
