<svg width="68" height="82" viewBox="0 0 68 82" fill="none" xmlns="http://www.w3.org/2000/svg">
<path d="M51.8348 18.7225H51.065C51.065 8.89499 43.4398 0.910156 34.055 0.910156C24.6702 0.910156 17.0451 8.89499 17.0451 18.7225H16.2753C7.77029 18.7225 0.95166 25.9012 0.95166 34.7305V65.9405C0.95166 74.7699 7.77029 81.9102 16.2019 81.9102H29.8392V74.2324H18.2549C12.756 74.2324 8.28353 69.549 8.28353 63.7907V60.3741H15.6154V63.7907C15.6154 65.3263 16.7885 66.5547 18.2549 66.5547H49.7452C51.2116 66.5547 52.3847 65.3263 52.3847 63.7907V56.9576C52.3847 55.422 51.2116 54.1936 49.7452 54.1936H18.2549C12.756 54.1936 8.28353 49.5102 8.28353 43.7519V36.9187C8.28353 31.1604 12.756 26.477 18.2549 26.477H29.8392V18.7993H24.3036C24.3036 13.1945 28.6661 8.66466 33.9817 8.66466C39.2973 8.66466 43.6598 13.2329 43.6598 18.7993H37.4976V26.477H49.7086C55.2075 26.477 59.6799 31.1604 59.6799 36.9187V40.3353H52.348V36.9187C52.348 35.3831 51.1749 34.1547 49.7086 34.1547H18.2549C16.7885 34.1547 15.6154 35.3831 15.6154 36.9187V43.7519C15.6154 45.2874 16.7885 46.5158 18.2549 46.5158H49.7452C55.2441 46.5158 59.7166 51.1993 59.7166 56.9576V63.7907C59.7166 69.549 55.2441 74.2324 49.7452 74.2324H37.5342V81.9102H51.7981C60.2298 81.9102 67.0484 74.7699 67.0484 65.9405V34.7305C67.0484 25.9012 60.2664 18.7225 51.8348 18.7225Z" fill="url(#paint0_linear_500_2443)"/>
<defs>
<linearGradient id="paint0_linear_500_2443" x1="67.0312" y1="77.3598" x2="-1.49458" y2="22.9607" gradientUnits="userSpaceOnUse">
<stop stop-color="#FF4F81"/>
<stop offset="1" stop-color="#8A00E6"/>
</linearGradient>
</defs>
</svg>
