<svg width="160" height="72" viewBox="0 0 160 72" fill="none" xmlns="http://www.w3.org/2000/svg">
<path d="M146.133 31.0049L148.102 35.8672H148.496L150.248 31.0049L154.231 20.1543H159.485L149.153 45.1406C148.628 46.4911 148.03 47.5268 147.358 48.2471C146.687 48.9674 145.914 49.4633 145.038 49.7334C144.192 50.0335 143.184 50.1836 142.016 50.1836C141.433 50.1836 140.834 50.1379 140.222 50.0479C139.609 49.9878 139.113 49.8983 138.733 49.7783V45.8164H141.754C142.659 45.8164 143.331 45.6813 143.768 45.4111C144.206 45.171 144.615 44.6452 144.994 43.835L145.815 41.9277L136.544 20.1543H141.754L146.133 31.0049ZM60.9296 11.916C63.6146 11.916 65.7894 12.3812 67.453 13.3115C69.1457 14.2419 70.3719 15.4724 71.1307 17.0029C71.9187 18.5035 72.3133 20.1545 72.3134 21.9551V22.4961H67.6288V22.001C67.6288 20.7405 67.424 19.7049 67.0155 18.8945C66.6361 18.0542 65.9355 17.4231 64.9139 17.0029C63.9216 16.5528 62.5644 16.3281 60.8427 16.3281C58.6829 16.3281 57.1213 16.6582 56.1581 17.3184C55.1949 17.9787 54.7128 18.9694 54.7128 20.29C54.7128 21.1903 54.8594 21.911 55.1512 22.4512C55.4723 22.9912 56.0118 23.4268 56.7704 23.7568C57.5584 24.057 58.6094 24.372 59.9227 24.7021L64.9139 25.7822C66.7819 26.1424 68.2854 26.7128 69.4237 27.4932C70.591 28.2734 71.4522 29.2337 72.0067 30.374C72.5613 31.4845 72.8387 32.8053 72.8387 34.3359C72.8387 35.8966 72.4589 37.3376 71.7001 38.6582C70.9412 39.9787 69.7593 41.0293 68.1542 41.8096C66.5781 42.5899 64.5344 42.9795 62.0243 42.9795C59.2226 42.9795 56.9316 42.5749 55.1512 41.7646C53.3708 40.9243 52.0425 39.7685 51.1669 38.2979C50.3205 36.7973 49.8974 35.0867 49.8973 33.166V32.4004H54.538V32.8955C54.538 34.126 54.7426 35.1616 55.1512 36.002C55.5891 36.8422 56.3625 37.4724 57.4716 37.8926C58.5806 38.3127 60.171 38.5234 62.243 38.5234C64.4029 38.5234 65.9211 38.2074 66.7968 37.5771C67.6721 36.9169 68.1101 35.8969 68.1102 34.5166C68.1102 33.5863 67.9783 32.8358 67.7157 32.2656C67.453 31.6954 66.9276 31.2293 66.1395 30.8691C65.3807 30.4791 64.2427 30.134 62.7255 29.834L57.7343 28.7988C56.0414 28.4687 54.6255 27.9579 53.4872 27.2676C52.349 26.5473 51.4731 25.6319 50.8602 24.5215C50.2766 23.411 49.9852 22.0752 49.9852 20.5146C49.9853 19.0141 50.3641 17.6186 51.1229 16.3281C51.9109 15.0076 53.1076 13.9422 54.7128 13.1318C56.3472 12.3215 58.4197 11.9161 60.9296 11.916ZM84.204 19.7041C86.1595 19.7041 87.8824 20.0947 89.371 20.875C90.8884 21.6253 92.0558 22.7208 92.8729 24.1611C93.7193 25.6018 94.1424 27.3429 94.1425 29.3838C94.1425 29.9841 94.1129 30.5694 94.0546 31.1396C94.0254 31.6799 93.9821 32.1301 93.9237 32.4902H78.0907C78.1387 33.683 78.3077 34.7185 78.6005 35.5967C78.9799 36.6171 79.6224 37.3824 80.5272 37.8926C81.432 38.4027 82.6721 38.6582 84.2479 38.6582C86.0865 38.6582 87.3855 38.358 88.1444 37.7578C88.9033 37.1575 89.2831 36.3615 89.2831 35.3711V35.0117H93.9677V35.417C93.9676 36.9475 93.5592 38.2834 92.7421 39.4238C91.9249 40.5342 90.7862 41.4039 89.327 42.0342C87.8969 42.6645 86.1887 42.9795 84.204 42.9795C81.84 42.9794 79.8699 42.4994 78.2938 41.5391C76.7178 40.5486 75.5507 39.1831 74.7919 37.4424C74.033 35.6716 73.6532 33.6304 73.6532 31.3193C73.6532 29.0085 74.0764 26.9828 74.9227 25.2422C75.7983 23.5014 77.0244 22.1509 78.6005 21.1904C80.1765 20.2 82.0443 19.7042 84.204 19.7041ZM100.935 42.5293H96.2069V12.3662H100.935V42.5293ZM108.762 42.5293H104.033V12.3662H108.762V42.5293ZM122.284 19.7041C123.831 19.7041 125.057 20.05 125.962 20.7402C126.896 21.4305 127.567 22.346 127.975 23.4863C128.384 24.6267 128.589 25.9021 128.589 27.3125V28.7988H123.86V27.8984C123.86 26.3981 123.612 25.3474 123.116 24.7471C122.62 24.1468 121.685 23.8467 120.313 23.8467C118.883 23.8467 117.862 24.1618 117.249 24.792C116.738 25.3172 116.45 26.187 116.387 27.4014L116.373 27.9434V42.5293H111.645V20.0195H115.979V23.5762H116.198C116.636 22.5257 117.351 21.6253 118.344 20.875C119.365 20.0947 120.679 19.7041 122.284 19.7041ZM134.991 42.5293H130.263V12.3662H134.991V42.5293ZM84.0731 23.7568C81.7673 23.7568 80.191 24.3571 79.3446 25.5576C78.6649 26.4977 78.2587 27.7282 78.1249 29.249H89.6171C89.6691 28.0718 89.5145 27.0961 89.1512 26.3223C88.7718 25.4522 88.1447 24.8069 87.2694 24.3867C86.423 23.9665 85.3573 23.7568 84.0731 23.7568Z" fill="white"/>
<path d="M29.7938 10.2423H29.343C29.343 4.59137 24.8782 0 19.3831 0C13.888 0 9.42324 4.59137 9.42324 10.2423H8.97247C3.99253 10.2423 0 14.3701 0 19.4471V37.3932C0 42.4702 3.99253 46.5759 8.92954 46.5759H16.9146V42.1611H10.1316C6.91181 42.1611 4.29305 39.4681 4.29305 36.157V34.1924H8.5861V36.157C8.5861 37.04 9.27298 37.7463 10.1316 37.7463H28.5702C29.4288 37.7463 30.1157 37.04 30.1157 36.157V32.2279C30.1157 31.3449 29.4288 30.6386 28.5702 30.6386H10.1316C6.91181 30.6386 4.29305 27.9455 4.29305 24.6345V20.7053C4.29305 17.3942 6.91181 14.7012 10.1316 14.7012H16.9146V10.2864H13.6734C13.6734 7.06364 16.2277 4.45892 19.3402 4.45892C22.4526 4.45892 25.007 7.08572 25.007 10.2864H21.5482V14.7012H28.5488C31.7686 14.7012 34.3873 17.3942 34.3873 20.7053V22.6699H30.0943V20.7053C30.0943 19.8223 29.4074 19.116 28.5488 19.116H10.1316C9.27298 19.116 8.5861 19.8223 8.5861 20.7053V24.6345C8.5861 25.5174 9.27298 26.2238 10.1316 26.2238H28.5702C31.79 26.2238 34.4088 28.9168 34.4088 32.2279V36.157C34.4088 39.4681 31.79 42.1611 28.5702 42.1611H21.5696V46.5759H29.7723C34.7093 46.5759 38.7018 42.4702 38.7018 37.3932V19.4471C38.7018 14.3701 34.7308 10.2423 29.7938 10.2423Z" fill="url(#paint0_linear_394_268)"/>
<path d="M13.5484 71.9109C10.9773 71.9109 9.33493 70.0283 9.33493 67.1351C9.33493 64.242 10.9773 62.3594 13.5484 62.3594C16.1062 62.3594 17.7485 64.242 17.7485 67.1351C17.7485 70.0283 16.1062 71.9109 13.5484 71.9109ZM13.5484 70.4712C15.4196 70.4712 16.2004 69.5438 16.2004 67.1351C16.2004 64.7265 15.4196 63.799 13.5484 63.799C11.6773 63.799 10.883 64.7265 10.883 67.1351C10.883 69.5438 11.6773 70.4712 13.5484 70.4712Z" fill="white"/>
<path d="M21.306 71.9109C19.556 71.9109 18.7752 70.7065 18.7752 69.1423V64.8926H20.229V68.8793C20.229 70.1113 20.6867 70.6235 21.8444 70.6235C22.9618 70.6235 23.5945 70.1252 23.5945 68.7686V64.8926H25.0483V71.7724H23.7022V70.402H23.6483C23.3252 71.191 22.6118 71.9109 21.306 71.9109Z" fill="white"/>
<path d="M29.0663 71.7724C27.5721 71.7724 26.7913 71.2049 26.7913 69.6545V66.1384H25.674V64.8926H26.8182L27.1279 63.1899H28.2452V64.8926H30.2644V66.1384H28.2452V69.5853C28.2452 70.3051 28.5413 70.4297 29.4433 70.4297H30.2644V71.6479C29.9817 71.7171 29.524 71.7724 29.0663 71.7724Z" fill="white"/>
<path d="M33.8356 71.9109C31.8836 71.9109 30.8605 71.1218 30.8605 69.4469V69.4192H32.2606V69.6683C32.2606 70.4159 32.5836 70.6927 33.8625 70.6927C34.9394 70.6927 35.1414 70.4435 35.1414 69.9314C35.1414 69.3776 34.8183 69.2115 33.8356 69.0316L32.799 68.8516C31.6009 68.6301 30.8471 68.0764 30.8471 66.8306C30.8471 65.5847 31.8432 64.7542 33.5933 64.7542C35.1683 64.7542 36.3529 65.557 36.3529 67.1213V67.2459H34.9664V67.0798C34.9664 66.443 34.751 65.9862 33.5529 65.9862C32.4894 65.9862 32.2336 66.2769 32.2336 66.8029C32.2336 67.3289 32.4759 67.4812 33.4183 67.675L34.5491 67.8965C35.8414 68.1595 36.5145 68.7547 36.5145 69.8898C36.5145 71.1634 35.5318 71.9109 33.8356 71.9109Z" fill="white"/>
<path d="M40.5276 71.9109C38.3199 71.9109 37.2834 70.4712 37.2834 68.3256C37.2834 66.1938 38.5218 64.7542 40.5142 64.7542C42.318 64.7542 43.5834 65.8616 43.5834 67.7442C43.5834 68.1041 43.5431 68.4779 43.5027 68.6855H38.643C38.6968 69.9452 39.1411 70.582 40.5411 70.582C41.6584 70.582 42.0892 70.1944 42.0892 69.5714V69.4607H43.5296V69.5853C43.5296 70.9972 42.3315 71.9109 40.5276 71.9109ZM40.4872 66.0139C39.2218 66.0139 38.7372 66.6229 38.6565 67.6888H42.1969C42.2507 66.5122 41.6315 66.0139 40.4872 66.0139Z" fill="white"/>
<path d="M46.076 71.7724H44.6221V62.4978H46.076V71.7724Z" fill="white"/>
<path d="M48.873 71.7724H47.4191V62.4978H48.873V71.7724Z" fill="white"/>
<path d="M51.7116 71.7724H49.8673V69.6268H51.7116V71.7724Z" fill="white"/>
<path d="M59.1111 71.9109C56.5399 71.9109 54.8976 70.0283 54.8976 67.1351C54.8976 64.242 56.5399 62.3594 59.1111 62.3594C61.6688 62.3594 63.3112 64.242 63.3112 67.1351C63.3112 70.0283 61.6688 71.9109 59.1111 71.9109ZM59.1111 70.4712C60.9823 70.4712 61.7631 69.5438 61.7631 67.1351C61.7631 64.7265 60.9823 63.799 59.1111 63.799C57.2399 63.799 56.4457 64.7265 56.4457 67.1351C56.4457 69.5438 57.2399 70.4712 59.1111 70.4712Z" fill="white"/>
<path d="M66.8687 71.9109C65.1186 71.9109 64.3378 70.7065 64.3378 69.1423V64.8926H65.7917V68.8793C65.7917 70.1113 66.2494 70.6235 67.4071 70.6235C68.5244 70.6235 69.1572 70.1252 69.1572 68.7686V64.8926H70.611V71.7724H69.2648V70.402H69.211C68.8879 71.191 68.1744 71.9109 66.8687 71.9109Z" fill="white"/>
<path d="M74.629 71.7724C73.1348 71.7724 72.354 71.2049 72.354 69.6545V66.1384H71.2367V64.8926H72.3809L72.6905 63.1899H73.8079V64.8926H75.8271V66.1384H73.8079V69.5853C73.8079 70.3051 74.104 70.4297 75.0059 70.4297H75.8271V71.6479C75.5444 71.7171 75.0867 71.7724 74.629 71.7724Z" fill="white"/>
<path d="M79.3983 71.9109C77.4463 71.9109 76.4232 71.1218 76.4232 69.4469V69.4192H77.8232V69.6683C77.8232 70.4159 78.1463 70.6927 79.4252 70.6927C80.5021 70.6927 80.704 70.4435 80.704 69.9314C80.704 69.3776 80.381 69.2115 79.3983 69.0316L78.3617 68.8516C77.1636 68.6301 76.4098 68.0764 76.4098 66.8306C76.4098 65.5847 77.4059 64.7542 79.1559 64.7542C80.731 64.7542 81.9156 65.557 81.9156 67.1213V67.2459H80.529V67.0798C80.529 66.443 80.3137 65.9862 79.1156 65.9862C78.0521 65.9862 77.7963 66.2769 77.7963 66.8029C77.7963 67.3289 78.0386 67.4812 78.9809 67.675L80.1117 67.8965C81.4041 68.1595 82.0771 68.7547 82.0771 69.8898C82.0771 71.1634 81.0944 71.9109 79.3983 71.9109Z" fill="white"/>
<path d="M84.5165 71.7724H83.0627V62.4978H84.5165V66.0415H84.5704C84.88 65.4186 85.5935 64.7542 86.805 64.7542C88.5551 64.7542 89.2955 65.9308 89.2955 67.4397V71.7724H87.8416V67.7857C87.8416 66.5537 87.4647 66.0415 86.2396 66.0415C85.055 66.0415 84.5165 66.5122 84.5165 67.8134V71.7724Z" fill="white"/>
<path d="M91.9519 64.0205H90.5115L90.4981 62.4978H91.9519V64.0205ZM91.9654 71.7724H90.5115V64.8511H91.9654V71.7724Z" fill="white"/>
<path d="M94.6197 71.7724H93.1658V64.8926H94.4985V66.18H94.5524C94.862 65.4463 95.5755 64.7542 96.8812 64.7542C98.6178 64.7542 99.3986 65.8893 99.3986 67.4535V71.7724H97.9447V67.7857C97.9447 66.5537 97.5678 66.0415 96.3428 66.0415C95.1581 66.0415 94.6197 66.5122 94.6197 67.7996V71.7724Z" fill="white"/>
<path d="M103.605 71.9109C101.397 71.9109 100.36 70.4712 100.36 68.3256C100.36 66.1938 101.599 64.7542 103.591 64.7542C105.395 64.7542 106.661 65.8616 106.661 67.7442C106.661 68.1041 106.62 68.4779 106.58 68.6855H101.72C101.774 69.9452 102.218 70.582 103.618 70.582C104.736 70.582 105.166 70.1944 105.166 69.5714V69.4607H106.607V69.5853C106.607 70.9972 105.409 71.9109 103.605 71.9109ZM103.564 66.0139C102.299 66.0139 101.814 66.6229 101.734 67.6888H105.274C105.328 66.5122 104.709 66.0139 103.564 66.0139Z" fill="white"/>
<path d="M109.168 71.7724H107.324V69.6268H109.168V71.7724Z" fill="white"/>
<path d="M116.568 71.9109C113.997 71.9109 112.354 70.0283 112.354 67.1351C112.354 64.242 113.997 62.3594 116.568 62.3594C119.126 62.3594 120.768 64.242 120.768 67.1351C120.768 70.0283 119.126 71.9109 116.568 71.9109ZM116.568 70.4712C118.439 70.4712 119.22 69.5438 119.22 67.1351C119.22 64.7265 118.439 63.799 116.568 63.799C114.697 63.799 113.903 64.7265 113.903 67.1351C113.903 69.5438 114.697 70.4712 116.568 70.4712Z" fill="white"/>
<path d="M124.325 71.9109C122.575 71.9109 121.795 70.7065 121.795 69.1423V64.8926H123.249V68.8793C123.249 70.1113 123.706 70.6235 124.864 70.6235C125.981 70.6235 126.614 70.1252 126.614 68.7686V64.8926H128.068V71.7724H126.722V70.402H126.668C126.345 71.191 125.631 71.9109 124.325 71.9109Z" fill="white"/>
<path d="M132.086 71.7724C130.592 71.7724 129.811 71.2049 129.811 69.6545V66.1384H128.693V64.8926H129.838L130.147 63.1899H131.265V64.8926H133.284V66.1384H131.265V69.5853C131.265 70.3051 131.561 70.4297 132.463 70.4297H133.284V71.6479C133.001 71.7171 132.544 71.7724 132.086 71.7724Z" fill="white"/>
<path d="M136.576 71.9109C134.664 71.9109 133.628 70.5128 133.628 68.3256C133.628 66.1523 134.651 64.7542 136.495 64.7542C137.68 64.7542 138.393 65.3356 138.689 65.9585H138.73V62.4978H140.17V71.7724H138.837V70.6373H138.784C138.461 71.4264 137.72 71.9109 136.576 71.9109ZM135.082 68.3256C135.082 70.0283 135.607 70.6373 136.899 70.6373C138.084 70.6373 138.73 70.0975 138.73 68.9485V67.7165C138.73 66.5676 138.084 66.0277 136.899 66.0277C135.62 66.0277 135.082 66.6368 135.082 68.3256Z" fill="white"/>
<path d="M144.483 71.9109C142.423 71.9109 141.144 70.4712 141.144 68.3256C141.144 66.1938 142.423 64.7542 144.483 64.7542C146.529 64.7542 147.767 66.1938 147.767 68.3256C147.767 70.4712 146.529 71.9109 144.483 71.9109ZM144.483 70.582C145.883 70.582 146.367 69.876 146.367 68.3256C146.367 66.7891 145.883 66.0831 144.483 66.0831C143.069 66.0831 142.571 66.7891 142.571 68.3256C142.571 69.876 143.069 70.582 144.483 70.582Z" fill="white"/>
<path d="M150.202 71.7724H148.358V69.6268H150.202V71.7724Z" fill="white"/>
<defs>
<linearGradient id="paint0_linear_394_268" x1="38.6918" y1="43.9594" x2="-0.867569" y2="11.9806" gradientUnits="userSpaceOnUse">
<stop stop-color="#FF4F81"/>
<stop offset="1" stop-color="#8A00E6"/>
</linearGradient>
</defs>
</svg>
