<svg width="134" height="34" viewBox="0 0 134 34" fill="none" xmlns="http://www.w3.org/2000/svg">
<rect width="134" height="34" rx="8" fill="#CBE0EF" fill-opacity="0.1"/>
<rect x="0.5" y="0.5" width="133" height="33" rx="7.5" stroke="#CBE0EF" stroke-opacity="0.15"/>
<path d="M20 25.7767C19.1299 25.5784 18.2941 25.2518 17.52 24.8077M24 8.22266C25.9882 8.67673 27.7633 9.79235 29.0347 11.3869C30.3061 12.9814 30.9985 14.9603 30.9985 16.9997C30.9985 19.039 30.3061 21.0179 29.0347 22.6125C27.7633 24.207 25.9882 25.3226 24 25.7767M14.579 22.0927C14.0341 21.2998 13.6199 20.4247 13.352 19.5007M13.124 15.4997C13.284 14.5497 13.592 13.6497 14.024 12.8247L14.193 12.5197M16.907 9.57866C17.8432 8.93553 18.8927 8.47544 20 8.22266" stroke="url(#paint0_linear_239_3003)" stroke-width="2" stroke-linecap="round" stroke-linejoin="round"/>
<path d="M45.3239 14.7102C45.2784 14.2519 45.0833 13.8958 44.7386 13.642C44.3939 13.3883 43.9261 13.2614 43.3352 13.2614C42.9337 13.2614 42.5947 13.3182 42.3182 13.4318C42.0417 13.5417 41.8295 13.6951 41.6818 13.892C41.5379 14.089 41.4659 14.3125 41.4659 14.5625C41.4583 14.7708 41.5019 14.9527 41.5966 15.108C41.6951 15.2633 41.8295 15.3977 42 15.5114C42.1705 15.6212 42.3674 15.7178 42.5909 15.8011C42.8144 15.8807 43.053 15.9489 43.3068 16.0057L44.3523 16.2557C44.8598 16.3693 45.3258 16.5208 45.75 16.7102C46.1742 16.8996 46.5417 17.1326 46.8523 17.4091C47.1629 17.6856 47.4034 18.0114 47.5739 18.3864C47.7481 18.7614 47.8371 19.1913 47.8409 19.6761C47.8371 20.3883 47.6553 21.0057 47.2955 21.5284C46.9394 22.0473 46.4242 22.4508 45.75 22.7386C45.0795 23.0227 44.2708 23.1648 43.3239 23.1648C42.3845 23.1648 41.5663 23.0208 40.8693 22.733C40.1761 22.4451 39.6345 22.0189 39.2443 21.4545C38.858 20.8864 38.6553 20.1837 38.6364 19.3466H41.017C41.0436 19.7367 41.1553 20.0625 41.3523 20.3239C41.553 20.5814 41.8201 20.7765 42.1534 20.9091C42.4905 21.0379 42.8712 21.1023 43.2955 21.1023C43.7121 21.1023 44.0739 21.0417 44.3807 20.9205C44.6913 20.7992 44.9318 20.6307 45.1023 20.4148C45.2727 20.1989 45.358 19.9508 45.358 19.6705C45.358 19.4091 45.2803 19.1894 45.125 19.0114C44.9735 18.8333 44.75 18.6818 44.4545 18.5568C44.1629 18.4318 43.8049 18.3182 43.3807 18.2159L42.1136 17.8977C41.1326 17.6591 40.358 17.286 39.7898 16.7784C39.2216 16.2708 38.9394 15.5871 38.9432 14.7273C38.9394 14.0227 39.1269 13.4072 39.5057 12.8807C39.8883 12.3542 40.4129 11.9432 41.0795 11.6477C41.7462 11.3523 42.5038 11.2045 43.3523 11.2045C44.2159 11.2045 44.9697 11.3523 45.6136 11.6477C46.2614 11.9432 46.7652 12.3542 47.125 12.8807C47.4848 13.4072 47.6705 14.017 47.6818 14.7102H45.3239ZM49.0526 13.392V11.3636H58.6094V13.392H55.0469V23H52.6151V13.392H49.0526ZM60.1832 23V11.3636H64.7741C65.6529 11.3636 66.4029 11.5208 67.0241 11.8352C67.6491 12.1458 68.1245 12.5871 68.4503 13.1591C68.7798 13.7273 68.9446 14.3958 68.9446 15.1648C68.9446 15.9375 68.7779 16.6023 68.4446 17.1591C68.1113 17.7121 67.6283 18.1364 66.9957 18.4318C66.367 18.7273 65.6056 18.875 64.7116 18.875H61.6378V16.8977H64.3139C64.7836 16.8977 65.1738 16.8333 65.4844 16.7045C65.795 16.5758 66.026 16.3826 66.1776 16.125C66.3329 15.8674 66.4105 15.5473 66.4105 15.1648C66.4105 14.7784 66.3329 14.4527 66.1776 14.1875C66.026 13.9223 65.7931 13.7216 65.4787 13.5852C65.1681 13.4451 64.776 13.375 64.3026 13.375H62.6435V23H60.1832ZM66.4673 17.7045L69.3594 23H66.6435L63.8139 17.7045H66.4673ZM72.6889 23H70.0526L74.0696 11.3636H77.2401L81.2514 23H78.6151L75.7003 14.0227H75.6094L72.6889 23ZM72.5241 18.4261H78.7514V20.3466H72.5241V18.4261ZM80.7869 13.392V11.3636H90.3438V13.392H86.7812V23H84.3494V13.392H80.7869ZM91.9176 23V11.3636H99.7585V13.392H94.3778V16.1648H99.3551V18.1932H94.3778V20.9716H99.7812V23H91.9176ZM109.43 15.125C109.351 14.8485 109.239 14.6042 109.095 14.392C108.951 14.1761 108.775 13.9943 108.567 13.8466C108.362 13.6951 108.127 13.5795 107.862 13.5C107.601 13.4205 107.311 13.3807 106.993 13.3807C106.398 13.3807 105.875 13.5284 105.425 13.8239C104.978 14.1193 104.629 14.5492 104.379 15.1136C104.129 15.6742 104.004 16.3598 104.004 17.1705C104.004 17.9811 104.127 18.6705 104.374 19.2386C104.62 19.8068 104.968 20.2405 105.419 20.5398C105.87 20.8352 106.402 20.983 107.016 20.983C107.572 20.983 108.048 20.8845 108.442 20.6875C108.839 20.4867 109.143 20.2045 109.351 19.8409C109.563 19.4773 109.669 19.0473 109.669 18.5511L110.169 18.625H107.169V16.7727H112.038V18.2386C112.038 19.2614 111.822 20.1402 111.391 20.875C110.959 21.6061 110.364 22.1705 109.607 22.5682C108.849 22.9621 107.982 23.1591 107.004 23.1591C105.913 23.1591 104.955 22.9186 104.129 22.4375C103.304 21.9527 102.66 21.2652 102.197 20.375C101.739 19.4811 101.51 18.4205 101.51 17.1932C101.51 16.25 101.646 15.4091 101.919 14.6705C102.196 13.928 102.582 13.2992 103.078 12.7841C103.574 12.2689 104.152 11.8769 104.811 11.608C105.47 11.339 106.184 11.2045 106.953 11.2045C107.612 11.2045 108.226 11.3011 108.794 11.4943C109.362 11.6837 109.866 11.9527 110.305 12.3011C110.749 12.6496 111.11 13.0644 111.391 13.5455C111.671 14.0227 111.851 14.5492 111.93 15.125H109.43ZM112.736 11.3636H115.491L118.145 16.375H118.259L120.912 11.3636H123.668L119.423 18.8864V23H116.98V18.8864L112.736 11.3636Z" fill="url(#paint1_linear_239_3003)"/>
<defs>
<linearGradient id="paint0_linear_239_3003" x1="22.0612" y1="8.22266" x2="22.0612" y2="25.7767" gradientUnits="userSpaceOnUse">
<stop stop-color="#FF7C58"/>
<stop offset="1" stop-color="#FFB3A6"/>
</linearGradient>
<linearGradient id="paint1_linear_239_3003" x1="81" y1="5" x2="81" y2="29" gradientUnits="userSpaceOnUse">
<stop stop-color="#FF7C58"/>
<stop offset="1" stop-color="#FFB3A6"/>
</linearGradient>
</defs>
</svg>
