<svg width="185" height="185" viewBox="0 0 185 185" fill="none" xmlns="http://www.w3.org/2000/svg">
<path fill-rule="evenodd" clip-rule="evenodd" d="M63.75 159.993C60.6066 159.993 58 157.386 58 154.243V31.5762C58 28.4328 60.6066 25.8262 63.75 25.8262C66.8933 25.8262 69.5 28.4328 69.5 31.5762V154.243C69.5 157.386 66.8933 159.993 63.75 159.993ZM33.0833 159.993C29.94 159.993 27.3333 157.386 27.3333 154.243V69.9095C27.3333 66.7662 29.94 64.1595 33.0833 64.1595C36.2266 64.1595 38.8333 66.7662 38.8333 69.9095V154.243C38.8333 157.386 36.2266 159.993 33.0833 159.993ZM88.6666 154.243C88.6666 157.386 91.2733 159.993 94.4166 159.993C97.56 159.993 100.167 157.386 100.167 154.243V85.2428C100.167 82.0995 97.56 79.4928 94.4166 79.4928C91.2733 79.4928 88.6666 82.0995 88.6666 85.2428V154.243ZM125.083 159.993C121.94 159.993 119.333 157.386 119.333 154.243V54.5762C119.333 51.4328 121.94 48.8262 125.083 48.8262C128.227 48.8262 130.833 51.4328 130.833 54.5762V154.243C130.833 157.386 128.227 159.993 125.083 159.993ZM150 154.243C150 157.386 152.607 159.993 155.75 159.993C158.893 159.993 161.5 157.386 161.5 154.243V108.243C161.5 105.1 158.893 102.493 155.75 102.493C152.607 102.493 150 105.1 150 108.243V154.243Z" fill="#252638"/>
</svg>
