<svg width="185" height="184" viewBox="0 0 185 184" fill="none" xmlns="http://www.w3.org/2000/svg">
<path fill-rule="evenodd" clip-rule="evenodd" d="M63.7497 159.083C60.6063 159.083 57.9997 156.476 57.9997 153.333V30.666C57.9997 27.5227 60.6063 24.916 63.7497 24.916C66.893 24.916 69.4997 27.5227 69.4997 30.666V153.333C69.4997 156.476 66.893 159.083 63.7497 159.083ZM33.083 159.083C29.9397 159.083 27.333 156.476 27.333 153.333V68.9994C27.333 65.856 29.9397 63.2494 33.083 63.2494C36.2263 63.2494 38.833 65.856 38.833 68.9994V153.333C38.833 156.476 36.2263 159.083 33.083 159.083ZM88.6663 153.333C88.6663 156.476 91.273 159.083 94.4163 159.083C97.5597 159.083 100.166 156.476 100.166 153.333V84.3327C100.166 81.1894 97.5597 78.5827 94.4163 78.5827C91.273 78.5827 88.6663 81.1894 88.6663 84.3327V153.333ZM125.083 159.083C121.94 159.083 119.333 156.476 119.333 153.333V53.666C119.333 50.5227 121.94 47.916 125.083 47.916C128.226 47.916 130.833 50.5227 130.833 53.666V153.333C130.833 156.476 128.226 159.083 125.083 159.083ZM150 153.333C150 156.476 152.606 159.083 155.75 159.083C158.893 159.083 161.5 156.476 161.5 153.333V107.333C161.5 104.189 158.893 101.583 155.75 101.583C152.606 101.583 150 104.189 150 107.333V153.333Z" fill="url(#paint0_linear_249_5363)"/>
<defs>
<linearGradient id="paint0_linear_249_5363" x1="94.4163" y1="24.916" x2="94.4163" y2="159.083" gradientUnits="userSpaceOnUse">
<stop stop-color="#00090D"/>
<stop offset="0.5" stop-color="#00101A"/>
<stop offset="1" stop-color="#00101A"/>
</linearGradient>
</defs>
</svg>
