<svg width="376" height="334" viewBox="0 0 376 334" fill="none" xmlns="http://www.w3.org/2000/svg">
<rect x="1.75" y="0.927734" width="372.5" height="332.829" rx="16.8998" fill="white" fill-opacity="0.03"/>
<rect x="2.10208" y="1.27981" width="371.796" height="332.125" rx="16.5477" stroke="white" stroke-opacity="0.1" stroke-width="0.704159"/>
<path d="M46.45 100.264H43.6305L38.6225 87.0537H41.0082L44.9909 97.8977H45.1487L49.092 87.0537H51.4579L46.45 100.264ZM54.457 89.2225H52.3473L52.3276 87.0537H54.457V89.2225ZM54.4767 100.264H52.3473V90.4054H54.4767V100.264ZM60.6931 100.461C57.4596 100.461 55.9414 98.4103 55.9414 95.3543C55.9414 92.3179 57.7553 90.2674 60.6734 90.2674C63.3154 90.2674 65.1687 91.8447 65.1687 94.5262C65.1687 95.0388 65.1096 95.5712 65.0504 95.8669H57.9328C58.0116 97.6611 58.6623 98.5681 60.7128 98.5681C62.3493 98.5681 62.9802 98.016 62.9802 97.1288V96.971H65.0899V97.1485C65.0899 99.1596 63.3351 100.461 60.6931 100.461ZM60.6339 92.0616C58.7806 92.0616 58.0708 92.9292 57.9525 94.4473H63.1379C63.2168 92.7714 62.3098 92.0616 60.6339 92.0616ZM70.8406 100.264H68.0606L65.6354 90.4646H67.9423L69.0661 95.9063L69.4604 98.4892H69.6182L70.2688 95.9063L71.9841 90.4646H74.7444L76.4795 95.9261L77.0907 98.4892H77.2484L77.6428 95.9261L78.7863 90.4646H80.9946L78.5694 100.264H75.8091L74.0544 94.8022L73.4037 92.3377H73.246L72.6151 94.8022L70.8406 100.264ZM86.1995 100.461C83.3407 100.461 81.8422 99.337 81.8422 96.9513V96.9119H83.8927V97.2668C83.8927 98.3315 84.3659 98.7258 86.239 98.7258C87.8163 98.7258 88.112 98.3709 88.112 97.6414C88.112 96.8527 87.6388 96.6161 86.1995 96.3598L84.6814 96.1035C82.9266 95.788 81.8225 94.9994 81.8225 93.2249C81.8225 91.4504 83.2815 90.2674 85.8446 90.2674C88.1515 90.2674 89.8865 91.411 89.8865 93.6389V93.8164H87.8557V93.5798C87.8557 92.6728 87.5403 92.0222 85.7855 92.0222C84.2279 92.0222 83.8533 92.4362 83.8533 93.1855C83.8533 93.9347 84.2082 94.1516 85.5883 94.4276L87.2445 94.7431C89.1373 95.1177 90.1231 95.9655 90.1231 97.5822C90.1231 99.3961 88.6838 100.461 86.1995 100.461Z" fill="#CBE0EF"/>
<path d="M38.8313 109.58V108.582H44.7764V109.58H42.3796V116.264H41.2244V109.58H38.8313ZM47.1216 112.843V116.264H46.0001V108.582H47.1066V111.44H47.1779C47.3129 111.13 47.5192 110.884 47.7968 110.701C48.0743 110.519 48.4369 110.427 48.8845 110.427C49.2796 110.427 49.6247 110.509 49.9198 110.671C50.2173 110.834 50.4474 111.076 50.6099 111.399C50.7749 111.719 50.8575 112.119 50.8575 112.599V116.264H49.736V112.734C49.736 112.312 49.6272 111.984 49.4096 111.751C49.1921 111.516 48.8895 111.399 48.5019 111.399C48.2369 111.399 47.9993 111.455 47.7893 111.568C47.5817 111.68 47.4179 111.845 47.2979 112.063C47.1804 112.278 47.1216 112.538 47.1216 112.843ZM52.3541 116.264V110.502H53.4756V116.264H52.3541ZM52.9204 109.613C52.7254 109.613 52.5578 109.548 52.4178 109.418C52.2803 109.286 52.2115 109.128 52.2115 108.946C52.2115 108.761 52.2803 108.603 52.4178 108.473C52.5578 108.341 52.7254 108.274 52.9204 108.274C53.1155 108.274 53.2818 108.341 53.4193 108.473C53.5593 108.603 53.6293 108.761 53.6293 108.946C53.6293 109.128 53.5593 109.286 53.4193 109.418C53.2818 109.548 53.1155 109.613 52.9204 109.613ZM59.3016 111.909L58.2851 112.089C58.2426 111.959 58.1751 111.835 58.0825 111.718C57.9925 111.6 57.87 111.504 57.715 111.429C57.5599 111.354 57.3661 111.316 57.1336 111.316C56.816 111.316 56.5509 111.388 56.3384 111.53C56.1258 111.67 56.0196 111.851 56.0196 112.074C56.0196 112.267 56.0908 112.422 56.2334 112.539C56.3759 112.657 56.606 112.753 56.9235 112.828L57.8387 113.038C58.3688 113.16 58.7639 113.349 59.024 113.604C59.2841 113.859 59.4141 114.191 59.4141 114.598C59.4141 114.943 59.3141 115.251 59.114 115.521C58.9165 115.789 58.6402 115.999 58.2851 116.151C57.9325 116.304 57.5237 116.38 57.0586 116.38C56.4134 116.38 55.887 116.242 55.4794 115.967C55.0719 115.69 54.8218 115.296 54.7293 114.786L55.8133 114.621C55.8808 114.903 56.0196 115.117 56.2296 115.262C56.4397 115.405 56.7135 115.476 57.0511 115.476C57.4186 115.476 57.7124 115.4 57.9325 115.247C58.1525 115.092 58.2626 114.903 58.2626 114.681C58.2626 114.501 58.1951 114.349 58.06 114.227C57.9275 114.104 57.7237 114.012 57.4486 113.949L56.4734 113.736C55.9358 113.613 55.5382 113.418 55.2807 113.15C55.0256 112.883 54.8981 112.544 54.8981 112.134C54.8981 111.794 54.9931 111.496 55.1831 111.241C55.3732 110.986 55.6357 110.787 55.9708 110.645C56.3059 110.5 56.6897 110.427 57.1223 110.427C57.745 110.427 58.2351 110.562 58.5926 110.832C58.9502 111.1 59.1865 111.459 59.3016 111.909ZM63.5325 108.582H64.9391L67.3846 114.553H67.4747L69.9202 108.582H71.3268V116.264H70.224V110.705H70.1528L67.8872 116.252H66.972L64.7065 110.701H64.6353V116.264H63.5325V108.582ZM75.3486 116.38C74.8085 116.38 74.3371 116.256 73.9345 116.009C73.532 115.761 73.2194 115.415 72.9968 114.97C72.7743 114.525 72.663 114.004 72.663 113.409C72.663 112.812 72.7743 112.289 72.9968 111.841C73.2194 111.394 73.532 111.046 73.9345 110.799C74.3371 110.551 74.8085 110.427 75.3486 110.427C75.8887 110.427 76.3601 110.551 76.7627 110.799C77.1653 111.046 77.4778 111.394 77.7004 111.841C77.9229 112.289 78.0342 112.812 78.0342 113.409C78.0342 114.004 77.9229 114.525 77.7004 114.97C77.4778 115.415 77.1653 115.761 76.7627 116.009C76.3601 116.256 75.8887 116.38 75.3486 116.38ZM75.3524 115.438C75.7024 115.438 75.9925 115.346 76.2226 115.161C76.4526 114.976 76.6227 114.73 76.7327 114.422C76.8452 114.114 76.9015 113.776 76.9015 113.406C76.9015 113.038 76.8452 112.7 76.7327 112.393C76.6227 112.083 76.4526 111.834 76.2226 111.646C75.9925 111.459 75.7024 111.365 75.3524 111.365C74.9998 111.365 74.7072 111.459 74.4747 111.646C74.2446 111.834 74.0733 112.083 73.9608 112.393C73.8508 112.7 73.7958 113.038 73.7958 113.406C73.7958 113.776 73.8508 114.114 73.9608 114.422C74.0733 114.73 74.2446 114.976 74.4747 115.161C74.7072 115.346 74.9998 115.438 75.3524 115.438ZM80.4076 112.843V116.264H79.2861V110.502H80.3626V111.44H80.4338C80.5664 111.135 80.7739 110.89 81.0565 110.705C81.3415 110.52 81.7004 110.427 82.133 110.427C82.5255 110.427 82.8694 110.51 83.1644 110.675C83.4595 110.837 83.6883 111.08 83.8508 111.403C84.0134 111.725 84.0947 112.124 84.0947 112.599V116.264H82.9731V112.734C82.9731 112.317 82.8644 111.99 82.6468 111.755C82.4293 111.518 82.1305 111.399 81.7504 111.399C81.4903 111.399 81.259 111.455 81.0565 111.568C80.8564 111.68 80.6976 111.845 80.5801 112.063C80.4651 112.278 80.4076 112.538 80.4076 112.843ZM88.2881 110.502V111.403H85.1411V110.502H88.2881ZM85.9851 109.122H87.1066V114.572C87.1066 114.79 87.1391 114.953 87.2041 115.063C87.2691 115.171 87.3529 115.245 87.4554 115.285C87.5604 115.322 87.6742 115.341 87.7967 115.341C87.8868 115.341 87.9655 115.335 88.033 115.322C88.1006 115.31 88.1531 115.3 88.1906 115.292L88.3931 116.219C88.3281 116.244 88.2356 116.269 88.1156 116.294C87.9955 116.321 87.8455 116.336 87.6655 116.339C87.3704 116.344 87.0953 116.291 86.8403 116.181C86.5852 116.071 86.3789 115.901 86.2214 115.671C86.0638 115.441 85.9851 115.152 85.9851 114.805V109.122ZM90.774 112.843V116.264H89.6525V108.582H90.759V111.44H90.8302C90.9653 111.13 91.1716 110.884 91.4491 110.701C91.7267 110.519 92.0893 110.427 92.5369 110.427C92.932 110.427 93.277 110.509 93.5721 110.671C93.8697 110.834 94.0997 111.076 94.2623 111.399C94.4273 111.719 94.5098 112.119 94.5098 112.599V116.264H93.3883V112.734C93.3883 112.312 93.2795 111.984 93.062 111.751C92.8444 111.516 92.5419 111.399 92.1543 111.399C91.8892 111.399 91.6517 111.455 91.4416 111.568C91.2341 111.68 91.0703 111.845 90.9503 112.063C90.8327 112.278 90.774 112.538 90.774 112.843Z" fill="white" fill-opacity="0.75"/>
<line x1="27.0996" y1="166.99" x2="188" y2="166.99" stroke="white" stroke-opacity="0.12" stroke-width="0.704159"/>
<path d="M45.7796 233.422H39.4703V220.212H45.543C48.1259 220.212 49.6835 221.277 49.6835 223.505C49.6835 225.042 48.8159 226.087 47.1203 226.344V226.501C49.1314 226.758 50.1566 228.059 50.1566 229.794C50.1566 232.042 48.5596 233.422 45.7796 233.422ZM41.5997 222.124V225.693H45.3458C46.9429 225.693 47.5738 225.259 47.5738 223.919C47.5738 222.558 47.002 222.124 45.405 222.124H41.5997ZM41.5997 227.468V231.509H45.7204C47.3175 231.509 48.0076 231.056 48.0076 229.498C48.0076 227.921 47.3175 227.468 45.7204 227.468H41.5997ZM56.1523 233.619C53.1357 233.619 51.2626 231.569 51.2626 228.512C51.2626 225.476 53.1357 223.426 56.1523 223.426C59.1492 223.426 60.9631 225.476 60.9631 228.512C60.9631 231.569 59.1492 233.619 56.1523 233.619ZM56.1523 231.726C58.2028 231.726 58.9126 230.721 58.9126 228.512C58.9126 226.324 58.2028 225.318 56.1523 225.318C54.0821 225.318 53.3526 226.324 53.3526 228.512C53.3526 230.721 54.0821 231.726 56.1523 231.726ZM66.2024 233.619C63.6393 233.619 62.4958 231.904 62.4958 229.676V223.623H64.6251V229.301C64.6251 231.056 65.2955 231.785 66.9911 231.785C68.6276 231.785 69.5542 231.076 69.5542 229.143V223.623H71.6836V233.422H69.712V231.47H69.6331C69.1599 232.594 68.1149 233.619 66.2024 233.619ZM75.9096 233.422H73.7802V223.623H75.7321V225.456H75.811C76.2645 224.411 77.3094 223.426 79.2219 223.426C81.7653 223.426 82.9089 225.042 82.9089 227.27V233.422H80.7795V227.744C80.7795 225.989 80.2275 225.259 78.4333 225.259C76.6982 225.259 75.9096 225.93 75.9096 227.763V233.422ZM89.306 233.639C86.2499 233.639 84.5149 231.569 84.5149 228.532C84.5149 225.476 86.3091 223.426 89.3848 223.426C91.9677 223.426 93.7422 225.023 93.7422 227.369V227.546H91.6325V227.428C91.6325 225.989 90.8833 225.338 89.2468 225.338C87.354 225.338 86.6245 226.403 86.6245 228.532C86.6245 230.662 87.354 231.707 89.2468 231.707C90.8833 231.707 91.6325 231.076 91.6325 229.636V229.518H93.7422V229.695C93.7422 232.022 91.948 233.639 89.306 233.639ZM99.7987 233.619C96.5652 233.619 95.047 231.569 95.047 228.512C95.047 225.476 96.8609 223.426 99.7789 223.426C102.421 223.426 104.274 225.003 104.274 227.684C104.274 228.197 104.215 228.729 104.156 229.025H97.0384C97.1172 230.819 97.7679 231.726 99.8184 231.726C101.455 231.726 102.086 231.174 102.086 230.287V230.129H104.195V230.307C104.195 232.318 102.441 233.619 99.7987 233.619ZM99.7395 225.22C97.8862 225.22 97.1764 226.087 97.0581 227.606H102.243C102.322 225.93 101.415 225.22 99.7395 225.22ZM111.974 233.422H109.845V220.212H115.523C118.441 220.212 120.275 221.651 120.275 224.155C120.275 226.344 118.934 227.665 116.608 227.783V227.941C117.574 228.256 118.146 228.848 118.638 229.755L120.61 233.422H118.146L116.273 230.011C115.661 228.867 115.109 228.335 113.532 228.335H111.974V233.422ZM111.974 222.124V226.58H115.78C117.495 226.58 118.146 225.949 118.146 224.352C118.146 222.795 117.495 222.124 115.78 222.124H111.974ZM124.424 233.619C122.669 233.619 121.309 232.712 121.309 230.997C121.309 229.38 122.492 228.532 124.582 228.236L128.013 227.724V227.191C128.013 225.732 127.342 225.299 125.804 225.299C124.247 225.299 123.636 225.792 123.636 227.093V227.389H121.585V227.191C121.585 225.003 123.3 223.426 125.923 223.426C128.663 223.426 130.043 225.082 130.043 227.468V233.422H128.072V231.884H127.973C127.401 232.811 126.278 233.619 124.424 233.619ZM123.379 230.839C123.379 231.608 123.872 231.923 125.114 231.923C126.494 231.923 128.013 231.371 128.013 229.4V229.222L124.897 229.695C123.774 229.853 123.379 230.11 123.379 230.839ZM136.068 233.422C133.879 233.422 132.736 232.614 132.736 230.405V225.397H131.099V223.623H132.775L133.229 221.198H134.865V223.623H137.823V225.397H134.865V230.307C134.865 231.332 135.299 231.509 136.62 231.509H137.823V233.244C137.409 233.343 136.738 233.422 136.068 233.422ZM143.275 233.619C140.041 233.619 138.523 231.569 138.523 228.512C138.523 225.476 140.337 223.426 143.255 223.426C145.897 223.426 147.751 225.003 147.751 227.684C147.751 228.197 147.691 228.729 147.632 229.025H140.515C140.594 230.819 141.244 231.726 143.295 231.726C144.931 231.726 145.562 231.174 145.562 230.287V230.129H147.672V230.307C147.672 232.318 145.917 233.619 143.275 233.619ZM143.216 225.22C141.362 225.22 140.653 226.087 140.534 227.606H145.72C145.799 225.93 144.892 225.22 143.216 225.22Z" fill="#CBE0EF"/>
<path d="M38.8313 242.738V241.74H44.7764V242.738H42.3796V249.422H41.2244V242.738H38.8313ZM47.1216 246.001V249.422H46.0001V241.74H47.1066V244.598H47.1779C47.3129 244.288 47.5192 244.042 47.7968 243.859C48.0743 243.677 48.4369 243.586 48.8845 243.586C49.2796 243.586 49.6247 243.667 49.9198 243.829C50.2173 243.992 50.4474 244.234 50.6099 244.557C50.7749 244.877 50.8575 245.277 50.8575 245.757V249.422H49.736V245.892C49.736 245.47 49.6272 245.142 49.4096 244.91C49.1921 244.675 48.8895 244.557 48.5019 244.557C48.2369 244.557 47.9993 244.613 47.7893 244.726C47.5817 244.838 47.4179 245.003 47.2979 245.221C47.1804 245.436 47.1216 245.696 47.1216 246.001ZM52.3541 249.422V243.661H53.4756V249.422H52.3541ZM52.9204 242.772C52.7254 242.772 52.5578 242.707 52.4178 242.577C52.2803 242.444 52.2115 242.287 52.2115 242.104C52.2115 241.919 52.2803 241.761 52.4178 241.631C52.5578 241.499 52.7254 241.433 52.9204 241.433C53.1155 241.433 53.2818 241.499 53.4193 241.631C53.5593 241.761 53.6293 241.919 53.6293 242.104C53.6293 242.287 53.5593 242.444 53.4193 242.577C53.2818 242.707 53.1155 242.772 52.9204 242.772ZM59.3016 245.067L58.2851 245.247C58.2426 245.117 58.1751 244.993 58.0825 244.876C57.9925 244.758 57.87 244.662 57.715 244.587C57.5599 244.512 57.3661 244.475 57.1336 244.475C56.816 244.475 56.5509 244.546 56.3384 244.688C56.1258 244.828 56.0196 245.01 56.0196 245.232C56.0196 245.425 56.0908 245.58 56.2334 245.697C56.3759 245.815 56.606 245.911 56.9235 245.986L57.8387 246.196C58.3688 246.319 58.7639 246.507 59.024 246.763C59.2841 247.018 59.4141 247.349 59.4141 247.756C59.4141 248.102 59.3141 248.409 59.114 248.679C58.9165 248.947 58.6402 249.157 58.2851 249.309C57.9325 249.462 57.5237 249.538 57.0586 249.538C56.4134 249.538 55.887 249.401 55.4794 249.126C55.0719 248.848 54.8218 248.454 54.7293 247.944L55.8133 247.779C55.8808 248.062 56.0196 248.275 56.2296 248.42C56.4397 248.563 56.7135 248.634 57.0511 248.634C57.4186 248.634 57.7124 248.558 57.9325 248.405C58.1525 248.25 58.2626 248.062 58.2626 247.839C58.2626 247.659 58.1951 247.508 58.06 247.385C57.9275 247.263 57.7237 247.17 57.4486 247.108L56.4734 246.894C55.9358 246.771 55.5382 246.576 55.2807 246.309C55.0256 246.041 54.8981 245.702 54.8981 245.292C54.8981 244.952 54.9931 244.655 55.1831 244.399C55.3732 244.144 55.6357 243.946 55.9708 243.803C56.3059 243.658 56.6897 243.586 57.1223 243.586C57.745 243.586 58.2351 243.721 58.5926 243.991C58.9502 244.258 59.1865 244.617 59.3016 245.067ZM63.5325 241.74H64.9391L67.3846 247.711H67.4747L69.9202 241.74H71.3268V249.422H70.224V243.863H70.1528L67.8872 249.411H66.972L64.7065 243.859H64.6353V249.422H63.5325V241.74ZM75.3486 249.538C74.8085 249.538 74.3371 249.414 73.9345 249.167C73.532 248.919 73.2194 248.573 72.9968 248.128C72.7743 247.683 72.663 247.163 72.663 246.567C72.663 245.97 72.7743 245.447 72.9968 245C73.2194 244.552 73.532 244.204 73.9345 243.957C74.3371 243.709 74.8085 243.586 75.3486 243.586C75.8887 243.586 76.3601 243.709 76.7627 243.957C77.1653 244.204 77.4778 244.552 77.7004 245C77.9229 245.447 78.0342 245.97 78.0342 246.567C78.0342 247.163 77.9229 247.683 77.7004 248.128C77.4778 248.573 77.1653 248.919 76.7627 249.167C76.3601 249.414 75.8887 249.538 75.3486 249.538ZM75.3524 248.597C75.7024 248.597 75.9925 248.504 76.2226 248.319C76.4526 248.134 76.6227 247.888 76.7327 247.58C76.8452 247.273 76.9015 246.934 76.9015 246.564C76.9015 246.196 76.8452 245.859 76.7327 245.551C76.6227 245.241 76.4526 244.992 76.2226 244.805C75.9925 244.617 75.7024 244.523 75.3524 244.523C74.9998 244.523 74.7072 244.617 74.4747 244.805C74.2446 244.992 74.0733 245.241 73.9608 245.551C73.8508 245.859 73.7958 246.196 73.7958 246.564C73.7958 246.934 73.8508 247.273 73.9608 247.58C74.0733 247.888 74.2446 248.134 74.4747 248.319C74.7072 248.504 74.9998 248.597 75.3524 248.597ZM80.4076 246.001V249.422H79.2861V243.661H80.3626V244.598H80.4338C80.5664 244.293 80.7739 244.048 81.0565 243.863C81.3415 243.678 81.7004 243.586 82.133 243.586C82.5255 243.586 82.8694 243.668 83.1644 243.833C83.4595 243.996 83.6883 244.238 83.8508 244.561C84.0134 244.883 84.0947 245.282 84.0947 245.757V249.422H82.9731V245.892C82.9731 245.475 82.8644 245.148 82.6468 244.913C82.4293 244.676 82.1305 244.557 81.7504 244.557C81.4903 244.557 81.259 244.613 81.0565 244.726C80.8564 244.838 80.6976 245.003 80.5801 245.221C80.4651 245.436 80.4076 245.696 80.4076 246.001ZM88.2881 243.661V244.561H85.1411V243.661H88.2881ZM85.9851 242.28H87.1066V247.73C87.1066 247.948 87.1391 248.112 87.2041 248.222C87.2691 248.329 87.3529 248.403 87.4554 248.443C87.5604 248.48 87.6742 248.499 87.7967 248.499C87.8868 248.499 87.9655 248.493 88.033 248.48C88.1006 248.468 88.1531 248.458 88.1906 248.45L88.3931 249.377C88.3281 249.402 88.2356 249.427 88.1156 249.452C87.9955 249.479 87.8455 249.494 87.6655 249.497C87.3704 249.502 87.0953 249.449 86.8403 249.339C86.5852 249.229 86.3789 249.059 86.2214 248.829C86.0638 248.599 85.9851 248.31 85.9851 247.963V242.28ZM90.774 246.001V249.422H89.6525V241.74H90.759V244.598H90.8302C90.9653 244.288 91.1716 244.042 91.4491 243.859C91.7267 243.677 92.0893 243.586 92.5369 243.586C92.932 243.586 93.277 243.667 93.5721 243.829C93.8697 243.992 94.0997 244.234 94.2623 244.557C94.4273 244.877 94.5098 245.277 94.5098 245.757V249.422H93.3883V245.892C93.3883 245.47 93.2795 245.142 93.062 244.91C92.8444 244.675 92.5419 244.557 92.1543 244.557C91.8892 244.557 91.6517 244.613 91.4416 244.726C91.2341 244.838 91.0703 245.003 90.9503 245.221C90.8327 245.436 90.774 245.696 90.774 246.001Z" fill="white" fill-opacity="0.75"/>
<rect x="188" y="26.2773" width="160.9" height="282.13" rx="15.4915" fill="url(#paint0_linear_227_1867)"/>
<path d="M234.107 110.057C227.778 110.057 225.501 106.509 225.501 99.5289C225.501 93.1703 228.488 89.6509 234.344 89.6509C238.928 89.6509 241.678 92.0761 241.678 95.9208V96.1574H236.976V95.9799C236.976 94.5308 236.029 93.9393 233.752 93.9393C230.765 93.9393 230.085 95.2997 230.085 98.1093V99.8246H230.233C231.09 98.5233 232.628 97.5178 235.615 97.5178C239.963 97.5178 242.181 99.7655 242.181 103.521C242.181 107.514 239.401 110.057 234.107 110.057ZM234.166 105.799C236.976 105.799 237.833 105.148 237.833 103.433C237.833 101.747 236.976 101.096 234.166 101.096C231.357 101.096 230.469 101.747 230.469 103.433C230.469 105.148 231.357 105.799 234.166 105.799ZM250.167 109.762H244.606V104.527H250.167V109.762ZM260.484 110.057C255.131 110.057 252.055 108.165 252.055 104.29C252.055 101.392 253.948 99.9725 255.9 99.4106V99.2331C254.037 98.9078 252.706 97.3404 252.706 95.004C252.706 91.869 255.16 89.6509 260.513 89.6509C265.867 89.6509 268.321 91.869 268.321 95.004C268.321 97.3404 266.99 98.9078 265.127 99.2331V99.4106C267.049 99.9725 268.972 101.392 268.972 104.29C268.972 108.165 265.867 110.057 260.484 110.057ZM260.513 98.0501C263.057 98.0501 263.885 97.3699 263.885 95.8616C263.885 94.3533 263.057 93.6731 260.513 93.6731C257.94 93.6731 257.112 94.3533 257.112 95.8616C257.112 97.3699 257.94 98.0501 260.513 98.0501ZM260.513 106.065C263.708 106.065 264.476 105.266 264.476 103.551C264.476 101.836 263.708 101.067 260.513 101.067C257.29 101.067 256.55 101.836 256.55 103.551C256.55 105.266 257.29 106.065 260.513 106.065ZM275.535 99.4697C272.341 99.4697 270.33 97.6065 270.33 94.5603C270.33 91.5141 272.341 89.6509 275.535 89.6509C278.7 89.6509 280.711 91.5141 280.711 94.5603C280.711 97.6065 278.7 99.4697 275.535 99.4697ZM276.393 109.762H272.341L286.626 89.9467H290.648L276.393 109.762ZM275.535 96.4531C276.925 96.4531 277.399 96.0982 277.399 94.5603C277.399 93.0225 276.925 92.6676 275.535 92.6676C274.145 92.6676 273.672 93.0225 273.672 94.5603C273.672 96.0982 274.145 96.4531 275.535 96.4531ZM287.484 110.057C284.289 110.057 282.278 108.194 282.278 105.148C282.278 102.102 284.289 100.239 287.484 100.239C290.678 100.239 292.659 102.102 292.659 105.148C292.659 108.194 290.678 110.057 287.484 110.057ZM287.484 107.041C288.874 107.041 289.347 106.686 289.347 105.148C289.347 103.61 288.874 103.255 287.484 103.255C286.094 103.255 285.62 103.61 285.62 105.148C285.62 106.686 286.094 107.041 287.484 107.041Z" fill="url(#paint1_linear_227_1867)"/>
<path d="M304.326 104.349C304.062 104.614 304.062 105.043 304.326 105.307C304.591 105.572 305.02 105.572 305.285 105.307L304.806 104.828L304.326 104.349ZM313.615 96.696C313.615 96.3218 313.312 96.0184 312.938 96.0184L306.839 96.0184C306.464 96.0184 306.161 96.3218 306.161 96.696C306.161 97.0703 306.464 97.3737 306.839 97.3737H312.26V102.795C312.26 103.169 312.563 103.473 312.938 103.473C313.312 103.473 313.615 103.169 313.615 102.795L313.615 96.696ZM304.806 104.828L305.285 105.307L313.417 97.1752L312.938 96.696L312.459 96.2168L304.326 104.349L304.806 104.828Z" fill="url(#paint2_linear_227_1867)"/>
<line x1="188" y1="166.99" x2="348.9" y2="166.99" stroke="white" stroke-opacity="0.12" stroke-width="0.704159"/>
<path d="M239.874 242.922H235.438V239.166H224.259V236.061L234.728 223.107H239.874V235.173H242.713V239.166H239.874V242.922ZM229.848 235.173H235.438V228.489H235.172L229.848 234.878V235.173ZM249.762 242.922H244.202V237.687H249.762V242.922ZM267.801 242.922H252.304V240.26C252.304 236.415 254.907 234.818 257.657 233.488L261.088 231.861C262.833 231.033 263.454 230.382 263.454 229.081C263.454 227.661 262.803 226.863 260.171 226.863C257.302 226.863 256.711 227.661 256.711 229.791V230.293H252.275V229.82C252.275 225.976 254.641 222.811 260.526 222.811C265.761 222.811 267.86 225.473 267.86 229.051C267.86 232.482 265.435 234.227 262.862 235.38L259.875 236.682C258.249 237.421 257.036 238.042 257.036 238.988L260.23 238.929H267.801V242.922ZM275.449 232.63C272.255 232.63 270.244 230.767 270.244 227.72C270.244 224.674 272.255 222.811 275.449 222.811C278.613 222.811 280.624 224.674 280.624 227.72C280.624 230.767 278.613 232.63 275.449 232.63ZM276.306 242.922H272.255L286.539 223.107H290.561L276.306 242.922ZM275.449 229.613C276.839 229.613 277.312 229.258 277.312 227.72C277.312 226.183 276.839 225.828 275.449 225.828C274.059 225.828 273.585 226.183 273.585 227.72C273.585 229.258 274.059 229.613 275.449 229.613ZM287.397 243.218C284.203 243.218 282.192 241.354 282.192 238.308C282.192 235.262 284.203 233.399 287.397 233.399C290.591 233.399 292.572 235.262 292.572 238.308C292.572 241.354 290.591 243.218 287.397 243.218ZM287.397 240.201C288.787 240.201 289.26 239.846 289.26 238.308C289.26 236.77 288.787 236.415 287.397 236.415C286.007 236.415 285.534 236.77 285.534 238.308C285.534 239.846 286.007 240.201 287.397 240.201Z" fill="url(#paint3_linear_227_1867)"/>
<path d="M304.326 230.337C304.062 230.072 304.062 229.643 304.326 229.378C304.591 229.114 305.02 229.114 305.285 229.378L304.806 229.857L304.326 230.337ZM313.615 237.99C313.615 238.364 313.312 238.667 312.938 238.667L306.839 238.667C306.464 238.667 306.161 238.364 306.161 237.99C306.161 237.615 306.464 237.312 306.839 237.312H312.26V231.89C312.26 231.516 312.563 231.213 312.938 231.213C313.312 231.213 313.615 231.516 313.615 231.89L313.615 237.99ZM304.806 229.857L305.285 229.378L313.417 237.51L312.938 237.99L312.459 238.469L304.326 230.337L304.806 229.857Z" fill="url(#paint4_linear_227_1867)"/>
<defs>
<linearGradient id="paint0_linear_227_1867" x1="268.45" y1="26.2773" x2="268.45" y2="308.407" gradientUnits="userSpaceOnUse">
<stop stop-color="#00090D"/>
<stop offset="0.5" stop-color="#00101A"/>
<stop offset="1" stop-color="#00101A"/>
</linearGradient>
<linearGradient id="paint1_linear_227_1867" x1="258.963" y1="82.7617" x2="258.963" y2="118.762" gradientUnits="userSpaceOnUse">
<stop stop-color="#9067FF"/>
<stop offset="1" stop-color="#11B5E4"/>
</linearGradient>
<linearGradient id="paint2_linear_227_1867" x1="308.872" y1="100.762" x2="309.579" y2="101.469" gradientUnits="userSpaceOnUse">
<stop stop-color="#9067FF"/>
<stop offset="1" stop-color="#11B5E4"/>
</linearGradient>
<linearGradient id="paint3_linear_227_1867" x1="258.963" y1="215.922" x2="258.963" y2="251.922" gradientUnits="userSpaceOnUse">
<stop stop-color="#9067FF"/>
<stop offset="1" stop-color="#11B5E4"/>
</linearGradient>
<linearGradient id="paint4_linear_227_1867" x1="308.872" y1="233.923" x2="309.579" y2="233.216" gradientUnits="userSpaceOnUse">
<stop stop-color="#9067FF"/>
<stop offset="1" stop-color="#11B5E4"/>
</linearGradient>
</defs>
</svg>
