<svg width="529" height="473" viewBox="0 0 529 473" fill="none" xmlns="http://www.w3.org/2000/svg">
<rect width="529" height="472.662" rx="24" fill="white" fill-opacity="0.03"/>
<rect x="0.5" y="0.5" width="528" height="471.662" rx="23.5" stroke="white" stroke-opacity="0.1"/>
<path d="M63.48 137.779H59.476L52.364 119.019H55.752L61.408 134.419H61.632L67.232 119.019H70.592L63.48 137.779ZM74.8511 122.099H71.8551L71.8271 119.019H74.8511V122.099ZM74.8791 137.779H71.8551V123.779H74.8791V137.779ZM83.7072 138.059C79.1152 138.059 76.9592 135.147 76.9592 130.807C76.9592 126.495 79.5352 123.583 83.6792 123.583C87.4312 123.583 90.0632 125.823 90.0632 129.631C90.0632 130.359 89.9792 131.115 89.8952 131.535H79.7872C79.8992 134.083 80.8232 135.371 83.7352 135.371C86.0592 135.371 86.9552 134.587 86.9552 133.327V133.103H89.9512V133.355C89.9512 136.211 87.4592 138.059 83.7072 138.059ZM83.6232 126.131C80.9912 126.131 79.9832 127.363 79.8152 129.519H87.1792C87.2912 127.139 86.0032 126.131 83.6232 126.131ZM98.118 137.779H94.17L90.726 123.863H94.002L95.598 131.591L96.158 135.259H96.382L97.306 131.591L99.742 123.863H103.662L106.126 131.619L106.994 135.259H107.218L107.778 131.619L109.402 123.863H112.538L109.094 137.779H105.174L102.682 130.023L101.758 126.523H101.534L100.638 130.023L98.118 137.779ZM119.93 138.059C115.87 138.059 113.742 136.463 113.742 133.075V133.019H116.654V133.523C116.654 135.035 117.326 135.595 119.986 135.595C122.226 135.595 122.646 135.091 122.646 134.055C122.646 132.935 121.974 132.599 119.93 132.235L117.774 131.871C115.282 131.423 113.714 130.303 113.714 127.783C113.714 125.263 115.786 123.583 119.426 123.583C122.702 123.583 125.166 125.207 125.166 128.371V128.623H122.282V128.287C122.282 126.999 121.834 126.075 119.342 126.075C117.13 126.075 116.598 126.663 116.598 127.727C116.598 128.791 117.102 129.099 119.062 129.491L121.414 129.939C124.102 130.471 125.502 131.675 125.502 133.971C125.502 136.547 123.458 138.059 119.93 138.059Z" fill="#CBE0EF"/>
<path d="M52.6605 158.287V156.87H61.1033V158.287H57.6996V167.779H56.0589V158.287H52.6605ZM64.4339 162.921V167.779H62.8412V156.87H64.4126V160.929H64.5138C64.7055 160.489 64.9985 160.139 65.3927 159.88C65.7868 159.621 66.3018 159.491 66.9374 159.491C67.4985 159.491 67.9885 159.606 68.4076 159.837C68.8302 160.068 69.1569 160.412 69.3877 160.871C69.6221 161.325 69.7393 161.893 69.7393 162.575V167.779H68.1466V162.767C68.1466 162.167 67.9921 161.702 67.6832 161.371C67.3742 161.037 66.9445 160.871 66.3941 160.871C66.0177 160.871 65.6803 160.95 65.382 161.11C65.0873 161.27 64.8547 161.504 64.6842 161.813C64.5173 162.119 64.4339 162.488 64.4339 162.921ZM71.8646 167.779V159.597H73.4573V167.779H71.8646ZM72.6689 158.335C72.392 158.335 72.154 158.243 71.9552 158.058C71.7599 157.87 71.6622 157.646 71.6622 157.387C71.6622 157.124 71.7599 156.9 71.9552 156.716C72.154 156.528 72.392 156.433 72.6689 156.433C72.9459 156.433 73.1821 156.528 73.3774 156.716C73.5763 156.9 73.6757 157.124 73.6757 157.387C73.6757 157.646 73.5763 157.87 73.3774 158.058C73.1821 158.243 72.9459 158.335 72.6689 158.335ZM81.731 161.595L80.2875 161.851C80.2271 161.666 80.1312 161.49 79.9998 161.323C79.872 161.156 79.698 161.02 79.4778 160.913C79.2576 160.807 78.9824 160.753 78.6522 160.753C78.2012 160.753 77.8248 160.855 77.5229 161.057C77.2211 161.256 77.0701 161.513 77.0701 161.829C77.0701 162.103 77.1713 162.323 77.3738 162.49C77.5762 162.657 77.9029 162.794 78.3539 162.9L79.6536 163.198C80.4064 163.372 80.9675 163.64 81.3368 164.003C81.7061 164.365 81.8908 164.835 81.8908 165.414C81.8908 165.904 81.7488 166.341 81.4647 166.725C81.1841 167.105 80.7917 167.403 80.2875 167.619C79.7868 167.836 79.2061 167.944 78.5456 167.944C77.6294 167.944 76.8819 167.749 76.3031 167.358C75.7243 166.964 75.3691 166.405 75.2377 165.681L76.7772 165.446C76.873 165.847 77.0701 166.151 77.3684 166.357C77.6667 166.559 78.0556 166.661 78.535 166.661C79.057 166.661 79.4743 166.552 79.7868 166.336C80.0993 166.116 80.2555 165.847 80.2555 165.531C80.2555 165.276 80.1596 165.061 79.9679 164.887C79.7797 164.713 79.4902 164.581 79.0996 164.493L77.7147 164.189C76.9512 164.015 76.3865 163.738 76.0208 163.358C75.6586 162.978 75.4775 162.497 75.4775 161.915C75.4775 161.432 75.6124 161.009 75.8823 160.647C76.1522 160.285 76.525 160.002 77.0009 159.8C77.4767 159.594 78.0218 159.491 78.6362 159.491C79.5204 159.491 80.2164 159.683 80.7243 160.066C81.2321 160.446 81.5676 160.956 81.731 161.595ZM87.7395 156.87H89.737L93.21 165.35H93.3379L96.8109 156.87H98.8084V167.779H97.2424V159.885H97.1412L93.9238 167.763H92.6241L89.4068 159.88H89.3056V167.779H87.7395V156.87ZM104.52 167.944C103.753 167.944 103.084 167.769 102.512 167.417C101.94 167.066 101.496 166.574 101.18 165.942C100.864 165.309 100.706 164.571 100.706 163.726C100.706 162.877 100.864 162.135 101.18 161.499C101.496 160.863 101.94 160.37 102.512 160.018C103.084 159.667 103.753 159.491 104.52 159.491C105.287 159.491 105.956 159.667 106.528 160.018C107.1 160.37 107.544 160.863 107.86 161.499C108.176 162.135 108.334 162.877 108.334 163.726C108.334 164.571 108.176 165.309 107.86 165.942C107.544 166.574 107.1 167.066 106.528 167.417C105.956 167.769 105.287 167.944 104.52 167.944ZM104.525 166.607C105.022 166.607 105.434 166.476 105.761 166.213C106.088 165.95 106.329 165.601 106.486 165.164C106.645 164.727 106.725 164.246 106.725 163.72C106.725 163.198 106.645 162.719 106.486 162.282C106.329 161.842 106.088 161.488 105.761 161.222C105.434 160.956 105.022 160.823 104.525 160.823C104.025 160.823 103.609 160.956 103.279 161.222C102.952 161.488 102.709 161.842 102.549 162.282C102.393 162.719 102.315 163.198 102.315 163.72C102.315 164.246 102.393 164.727 102.549 165.164C102.709 165.601 102.952 165.95 103.279 166.213C103.609 166.476 104.025 166.607 104.525 166.607ZM111.704 162.921V167.779H110.112V159.597H111.64V160.929H111.742C111.93 160.496 112.225 160.148 112.626 159.885C113.031 159.622 113.54 159.491 114.155 159.491C114.712 159.491 115.2 159.608 115.619 159.843C116.039 160.073 116.363 160.418 116.594 160.876C116.825 161.334 116.941 161.9 116.941 162.575V167.779H115.348V162.767C115.348 162.174 115.193 161.71 114.884 161.377C114.575 161.039 114.151 160.871 113.611 160.871C113.242 160.871 112.914 160.95 112.626 161.11C112.342 161.27 112.116 161.504 111.949 161.813C111.786 162.119 111.704 162.488 111.704 162.921ZM122.896 159.597V160.876H118.427V159.597H122.896ZM119.625 157.637H121.218V165.377C121.218 165.686 121.264 165.919 121.356 166.075C121.449 166.227 121.568 166.332 121.713 166.389C121.862 166.442 122.024 166.469 122.198 166.469C122.326 166.469 122.438 166.46 122.534 166.442C122.629 166.425 122.704 166.41 122.757 166.4L123.045 167.715C122.953 167.751 122.821 167.786 122.651 167.822C122.48 167.861 122.267 167.882 122.012 167.886C121.593 167.893 121.202 167.818 120.84 167.662C120.477 167.506 120.184 167.264 119.961 166.938C119.737 166.611 119.625 166.201 119.625 165.707V157.637ZM126.426 162.921V167.779H124.833V156.87H126.405V160.929H126.506C126.698 160.489 126.991 160.139 127.385 159.88C127.779 159.621 128.294 159.491 128.93 159.491C129.491 159.491 129.981 159.606 130.4 159.837C130.822 160.068 131.149 160.412 131.38 160.871C131.614 161.325 131.731 161.893 131.731 162.575V167.779H130.139V162.767C130.139 162.167 129.984 161.702 129.675 161.371C129.366 161.037 128.937 160.871 128.386 160.871C128.01 160.871 127.672 160.95 127.374 161.11C127.079 161.27 126.847 161.504 126.676 161.813C126.509 162.119 126.426 162.488 126.426 162.921Z" fill="white" fill-opacity="0.75"/>
<line x1="36" y1="235.832" x2="264.5" y2="235.832" stroke="white" stroke-opacity="0.12"/>
<path d="M61.772 310.161C56.312 310.161 53.008 306.353 53.008 300.501C53.008 294.649 56.312 290.841 61.772 290.841C66.812 290.841 69.864 293.641 69.864 298.149V298.317H66.644V298.149C66.644 295.069 65.216 293.753 61.688 293.753C57.796 293.753 56.228 295.629 56.228 300.501C56.228 305.373 57.796 307.249 61.688 307.249C65.216 307.249 66.644 305.933 66.644 302.853V302.685H69.864V302.853C69.864 307.361 66.812 310.161 61.772 310.161ZM75.4572 309.881H72.4332V291.121H75.4572V309.881ZM81.2495 294.201H78.2535L78.2255 291.121H81.2495V294.201ZM81.2775 309.881H78.2535V295.881H81.2775V309.881ZM90.1616 310.189C85.8216 310.189 83.3576 307.249 83.3576 302.937C83.3576 298.597 85.9056 295.685 90.2736 295.685C93.9416 295.685 96.4616 297.953 96.4616 301.285V301.537H93.4656V301.369C93.4656 299.325 92.4016 298.401 90.0776 298.401C87.3896 298.401 86.3536 299.913 86.3536 302.937C86.3536 305.961 87.3896 307.445 90.0776 307.445C92.4016 307.445 93.4656 306.549 93.4656 304.505V304.337H96.4616V304.589C96.4616 307.893 93.9136 310.189 90.1616 310.189ZM101.789 309.881H98.7653V291.121H101.789V301.481H104.533L108.257 295.965H111.813L106.969 302.545L111.729 309.881H108.201L104.561 304.197H101.789V309.881ZM121.158 302.937H112.226V300.361H121.158V302.937ZM130.509 309.881H127.513V293.837H121.129V291.121H136.893V293.837H130.509V309.881ZM141.383 309.881H138.359V291.121H141.383V298.289H141.495C142.139 297.029 143.623 295.685 146.143 295.685C149.783 295.685 151.323 298.065 151.323 301.117V309.881H148.299V301.817C148.299 299.325 147.515 298.289 144.967 298.289C142.503 298.289 141.383 299.241 141.383 301.873V309.881ZM157.324 309.881H154.3V295.881H157.072V298.093H157.212C157.772 296.805 159.06 295.685 161.104 295.685C164.016 295.685 165.136 297.813 165.136 300.417V301.341H162.112V300.781C162.112 298.933 161.58 298.261 159.816 298.261C157.996 298.261 157.324 298.961 157.324 300.809V309.881ZM173.454 310.161C169.17 310.161 166.51 307.249 166.51 302.909C166.51 298.597 169.17 295.685 173.454 295.685C177.71 295.685 180.286 298.597 180.286 302.909C180.286 307.249 177.71 310.161 173.454 310.161ZM173.454 307.473C176.366 307.473 177.374 306.045 177.374 302.909C177.374 299.801 176.366 298.373 173.454 298.373C170.514 298.373 169.478 299.801 169.478 302.909C169.478 306.045 170.514 307.473 173.454 307.473ZM187.727 310.161C184.087 310.161 182.463 307.725 182.463 304.561V295.965H185.487V304.029C185.487 306.521 186.439 307.557 188.847 307.557C191.171 307.557 192.487 306.549 192.487 303.805V295.965H195.511V309.881H192.711V307.109H192.599C191.927 308.705 190.443 310.161 187.727 310.161ZM203.837 308.565C200.001 308.565 197.873 306.045 197.873 302.125C197.873 298.205 200.029 295.685 203.949 295.685C206.189 295.685 207.925 296.637 208.597 298.261H208.709V295.965H211.481V308.873C211.481 312.989 209.073 314.921 205.013 314.921C201.065 314.921 198.601 313.045 198.601 309.685H201.597C201.597 311.589 202.297 312.233 205.097 312.233C207.813 312.233 208.485 311.449 208.485 308.873V306.101H208.373C207.729 307.445 206.105 308.565 203.837 308.565ZM200.897 302.125C200.897 304.981 202.073 305.989 204.705 305.989C206.973 305.989 208.485 304.897 208.485 302.545V301.677C208.485 299.353 206.973 298.261 204.649 298.261C202.045 298.261 200.897 299.269 200.897 302.125ZM217.481 309.881H214.457V291.121H217.481V298.289H217.593C218.237 297.029 219.721 295.685 222.241 295.685C225.881 295.685 227.421 298.065 227.421 301.117V309.881H224.397V301.817C224.397 299.325 223.613 298.289 221.065 298.289C218.601 298.289 217.481 299.241 217.481 301.873V309.881ZM56.592 343.881H53.568V325.121H61.632C65.776 325.121 68.38 327.165 68.38 330.721C68.38 333.829 66.476 335.705 63.172 335.873V336.097C64.544 336.545 65.356 337.385 66.056 338.673L68.856 343.881H65.356L62.696 339.037C61.828 337.413 61.044 336.657 58.804 336.657H56.592V343.881ZM56.592 327.837V334.165H61.996C64.432 334.165 65.356 333.269 65.356 331.001C65.356 328.789 64.432 327.837 61.996 327.837H56.592ZM74.2725 344.161C71.7805 344.161 69.8485 342.873 69.8485 340.437C69.8485 338.141 71.5285 336.937 74.4965 336.517L79.3685 335.789V335.033C79.3685 332.961 78.4165 332.345 76.2325 332.345C74.0205 332.345 73.1525 333.045 73.1525 334.893V335.313H70.2405V335.033C70.2405 331.925 72.6765 329.685 76.4005 329.685C80.2925 329.685 82.2525 332.037 82.2525 335.425V343.881H79.4525V341.697H79.3125C78.5005 343.013 76.9045 344.161 74.2725 344.161ZM72.7885 340.213C72.7885 341.305 73.4885 341.753 75.2525 341.753C77.2125 341.753 79.3685 340.969 79.3685 338.169V337.917L74.9445 338.589C73.3485 338.813 72.7885 339.177 72.7885 340.213ZM90.808 343.881C87.7 343.881 86.076 342.733 86.076 339.597V332.485H83.752V329.965H86.132L86.776 326.521H89.1V329.965H93.3V332.485H89.1V339.457C89.1 340.913 89.716 341.165 91.592 341.165H93.3V343.629C92.712 343.769 91.76 343.881 90.808 343.881ZM101.043 344.161C96.4511 344.161 94.2951 341.249 94.2951 336.909C94.2951 332.597 96.8711 329.685 101.015 329.685C104.767 329.685 107.399 331.925 107.399 335.733C107.399 336.461 107.315 337.217 107.231 337.637H97.1231C97.2351 340.185 98.1591 341.473 101.071 341.473C103.395 341.473 104.291 340.689 104.291 339.429V339.205H107.287V339.457C107.287 342.313 104.795 344.161 101.043 344.161ZM100.959 332.233C98.3271 332.233 97.3191 333.465 97.1511 335.621H104.515C104.627 333.241 103.339 332.233 100.959 332.233Z" fill="#CBE0EF"/>
<path d="M52.6605 364.389V362.972H61.1033V364.389H57.6996V373.881H56.0589V364.389H52.6605ZM64.4339 369.023V373.881H62.8412V362.972H64.4126V367.031H64.5138C64.7055 366.59 64.9985 366.241 65.3927 365.981C65.7868 365.722 66.3018 365.593 66.9374 365.593C67.4985 365.593 67.9885 365.708 68.4076 365.939C68.8302 366.17 69.1569 366.514 69.3877 366.972C69.6221 367.427 69.7393 367.995 69.7393 368.677V373.881H68.1466V368.868C68.1466 368.268 67.9921 367.803 67.6832 367.473C67.3742 367.139 66.9445 366.972 66.3941 366.972C66.0177 366.972 65.6803 367.052 65.382 367.212C65.0873 367.372 64.8547 367.606 64.6842 367.915C64.5173 368.22 64.4339 368.59 64.4339 369.023ZM71.8646 373.881V365.699H73.4573V373.881H71.8646ZM72.6689 364.437C72.392 364.437 72.154 364.344 71.9552 364.16C71.7599 363.971 71.6622 363.748 71.6622 363.488C71.6622 363.226 71.7599 363.002 71.9552 362.817C72.154 362.629 72.392 362.535 72.6689 362.535C72.9459 362.535 73.1821 362.629 73.3774 362.817C73.5763 363.002 73.6757 363.226 73.6757 363.488C73.6757 363.748 73.5763 363.971 73.3774 364.16C73.1821 364.344 72.9459 364.437 72.6689 364.437ZM81.731 367.697L80.2875 367.952C80.2271 367.768 80.1312 367.592 79.9998 367.425C79.872 367.258 79.698 367.121 79.4778 367.015C79.2576 366.908 78.9824 366.855 78.6522 366.855C78.2012 366.855 77.8248 366.956 77.5229 367.159C77.2211 367.357 77.0701 367.615 77.0701 367.931C77.0701 368.204 77.1713 368.425 77.3738 368.591C77.5762 368.758 77.9029 368.895 78.3539 369.002L79.6536 369.3C80.4064 369.474 80.9675 369.742 81.3368 370.104C81.7061 370.466 81.8908 370.937 81.8908 371.516C81.8908 372.006 81.7488 372.443 81.4647 372.826C81.1841 373.206 80.7917 373.504 80.2875 373.721C79.7868 373.938 79.2061 374.046 78.5456 374.046C77.6294 374.046 76.8819 373.851 76.3031 373.46C75.7243 373.066 75.3691 372.507 75.2377 371.782L76.7772 371.548C76.873 371.949 77.0701 372.253 77.3684 372.459C77.6667 372.661 78.0556 372.762 78.535 372.762C79.057 372.762 79.4743 372.654 79.7868 372.437C80.0993 372.217 80.2555 371.949 80.2555 371.633C80.2555 371.377 80.1596 371.162 79.9679 370.988C79.7797 370.814 79.4902 370.683 79.0996 370.594L77.7147 370.291C76.9512 370.117 76.3865 369.84 76.0208 369.46C75.6586 369.08 75.4775 368.599 75.4775 368.016C75.4775 367.533 75.6124 367.111 75.8823 366.748C76.1522 366.386 76.525 366.104 77.0009 365.901C77.4767 365.695 78.0218 365.593 78.6362 365.593C79.5204 365.593 80.2164 365.784 80.7243 366.168C81.2321 366.548 81.5676 367.057 81.731 367.697ZM87.7395 362.972H89.737L93.21 371.452H93.3379L96.8109 362.972H98.8084V373.881H97.2424V365.987H97.1412L93.9238 373.865H92.6241L89.4068 365.981H89.3056V373.881H87.7395V362.972ZM104.52 374.046C103.753 374.046 103.084 373.87 102.512 373.519C101.94 373.167 101.496 372.675 101.18 372.043C100.864 371.411 100.706 370.672 100.706 369.827C100.706 368.979 100.864 368.236 101.18 367.601C101.496 366.965 101.94 366.471 102.512 366.12C103.084 365.768 103.753 365.593 104.52 365.593C105.287 365.593 105.956 365.768 106.528 366.12C107.1 366.471 107.544 366.965 107.86 367.601C108.176 368.236 108.334 368.979 108.334 369.827C108.334 370.672 108.176 371.411 107.86 372.043C107.544 372.675 107.1 373.167 106.528 373.519C105.956 373.87 105.287 374.046 104.52 374.046ZM104.525 372.709C105.022 372.709 105.434 372.578 105.761 372.315C106.088 372.052 106.329 371.702 106.486 371.265C106.645 370.829 106.725 370.347 106.725 369.822C106.725 369.3 106.645 368.82 106.486 368.384C106.329 367.943 106.088 367.59 105.761 367.324C105.434 367.057 105.022 366.924 104.525 366.924C104.025 366.924 103.609 367.057 103.279 367.324C102.952 367.59 102.709 367.943 102.549 368.384C102.393 368.82 102.315 369.3 102.315 369.822C102.315 370.347 102.393 370.829 102.549 371.265C102.709 371.702 102.952 372.052 103.279 372.315C103.609 372.578 104.025 372.709 104.525 372.709ZM111.704 369.023V373.881H110.112V365.699H111.64V367.031H111.742C111.93 366.597 112.225 366.249 112.626 365.987C113.031 365.724 113.54 365.593 114.155 365.593C114.712 365.593 115.2 365.71 115.619 365.944C116.039 366.175 116.363 366.519 116.594 366.977C116.825 367.436 116.941 368.002 116.941 368.677V373.881H115.348V368.868C115.348 368.275 115.193 367.812 114.884 367.478C114.575 367.141 114.151 366.972 113.611 366.972C113.242 366.972 112.914 367.052 112.626 367.212C112.342 367.372 112.116 367.606 111.949 367.915C111.786 368.22 111.704 368.59 111.704 369.023ZM122.896 365.699V366.977H118.427V365.699H122.896ZM119.625 363.739H121.218V371.479C121.218 371.787 121.264 372.02 121.356 372.176C121.449 372.329 121.568 372.434 121.713 372.491C121.862 372.544 122.024 372.57 122.198 372.57C122.326 372.57 122.438 372.562 122.534 372.544C122.629 372.526 122.704 372.512 122.757 372.501L123.045 373.817C122.953 373.852 122.821 373.888 122.651 373.923C122.48 373.963 122.267 373.984 122.012 373.987C121.593 373.994 121.202 373.92 120.84 373.764C120.477 373.607 120.184 373.366 119.961 373.039C119.737 372.713 119.625 372.302 119.625 371.809V363.739ZM126.426 369.023V373.881H124.833V362.972H126.405V367.031H126.506C126.698 366.59 126.991 366.241 127.385 365.981C127.779 365.722 128.294 365.593 128.93 365.593C129.491 365.593 129.981 365.708 130.4 365.939C130.822 366.17 131.149 366.514 131.38 366.972C131.614 367.427 131.731 367.995 131.731 368.677V373.881H130.139V368.868C130.139 368.268 129.984 367.803 129.675 367.473C129.366 367.139 128.937 366.972 128.386 366.972C128.01 366.972 127.672 367.052 127.374 367.212C127.079 367.372 126.847 367.606 126.676 367.915C126.509 368.22 126.426 368.59 126.426 369.023Z" fill="white" fill-opacity="0.75"/>
<rect x="264.5" y="36" width="228.5" height="400.662" rx="22" fill="url(#paint0_linear_227_1998)"/>
<path d="M330.182 155.199C321.194 155.199 317.96 150.159 317.96 140.247C317.96 131.217 322.202 126.219 330.518 126.219C337.028 126.219 340.934 129.663 340.934 135.123V135.459H334.256V135.207C334.256 133.149 332.912 132.309 329.678 132.309C325.436 132.309 324.47 134.241 324.47 138.231V140.667H324.68C325.898 138.819 328.082 137.391 332.324 137.391C338.498 137.391 341.648 140.583 341.648 145.917C341.648 151.587 337.7 155.199 330.182 155.199ZM330.266 149.151C334.256 149.151 335.474 148.227 335.474 145.791C335.474 143.397 334.256 142.473 330.266 142.473C326.276 142.473 325.016 143.397 325.016 145.791C325.016 148.227 326.276 149.151 330.266 149.151ZM352.989 154.779H345.093V147.345H352.989V154.779ZM367.641 155.199C360.039 155.199 355.671 152.511 355.671 147.009C355.671 142.893 358.359 140.877 361.131 140.079V139.827C358.485 139.365 356.595 137.139 356.595 133.821C356.595 129.369 360.081 126.219 367.683 126.219C375.285 126.219 378.771 129.369 378.771 133.821C378.771 137.139 376.881 139.365 374.235 139.827V140.079C376.965 140.877 379.695 142.893 379.695 147.009C379.695 152.511 375.285 155.199 367.641 155.199ZM367.683 138.147C371.295 138.147 372.471 137.181 372.471 135.039C372.471 132.897 371.295 131.931 367.683 131.931C364.029 131.931 362.853 132.897 362.853 135.039C362.853 137.181 364.029 138.147 367.683 138.147ZM367.683 149.529C372.219 149.529 373.311 148.395 373.311 145.959C373.311 143.523 372.219 142.431 367.683 142.431C363.105 142.431 362.055 143.523 362.055 145.959C362.055 148.395 363.105 149.529 367.683 149.529ZM389.016 140.163C384.48 140.163 381.624 137.517 381.624 133.191C381.624 128.865 384.48 126.219 389.016 126.219C393.51 126.219 396.366 128.865 396.366 133.191C396.366 137.517 393.51 140.163 389.016 140.163ZM390.234 154.779H384.48L404.766 126.639H410.478L390.234 154.779ZM389.016 135.879C390.99 135.879 391.662 135.375 391.662 133.191C391.662 131.007 390.99 130.503 389.016 130.503C387.042 130.503 386.37 131.007 386.37 133.191C386.37 135.375 387.042 135.879 389.016 135.879ZM405.984 155.199C401.448 155.199 398.592 152.553 398.592 148.227C398.592 143.901 401.448 141.255 405.984 141.255C410.52 141.255 413.334 143.901 413.334 148.227C413.334 152.553 410.52 155.199 405.984 155.199ZM405.984 150.915C407.958 150.915 408.63 150.411 408.63 148.227C408.63 146.043 407.958 145.539 405.984 145.539C404.01 145.539 403.338 146.043 403.338 148.227C403.338 150.411 404.01 150.915 405.984 150.915Z" fill="url(#paint1_linear_227_1998)"/>
<path d="M429.494 146.872C429.118 147.248 429.118 147.857 429.494 148.233C429.87 148.609 430.479 148.609 430.855 148.233L430.175 147.553L429.494 146.872ZM442.686 136.004C442.686 135.473 442.255 135.042 441.723 135.042L433.062 135.042C432.53 135.042 432.1 135.473 432.1 136.004C432.1 136.536 432.53 136.966 433.062 136.966L440.761 136.966L440.761 144.666C440.761 145.197 441.192 145.628 441.723 145.628C442.255 145.628 442.686 145.197 442.686 144.666L442.686 136.004ZM430.175 147.553L430.855 148.233L442.404 136.685L441.723 136.004L441.043 135.324L429.494 146.872L430.175 147.553Z" fill="#127C96"/>
<line x1="264.5" y1="235.832" x2="493" y2="235.832" stroke="white" stroke-opacity="0.12"/>
<path d="M338.372 343.885H332.072V338.551H316.196V334.141L331.064 315.745H338.372V332.881H342.404V338.551H338.372V343.885ZM324.134 332.881H332.072V323.389H331.694L324.134 332.461V332.881ZM352.415 343.885H344.519V336.451H352.415V343.885ZM378.033 343.885H356.025V340.105C356.025 334.645 359.721 332.377 363.627 330.487L368.499 328.177C370.977 327.001 371.859 326.077 371.859 324.229C371.859 322.213 370.935 321.079 367.197 321.079C363.123 321.079 362.283 322.213 362.283 325.237V325.951H355.983V325.279C355.983 319.819 359.343 315.325 367.701 315.325C375.135 315.325 378.117 319.105 378.117 324.187C378.117 329.059 374.673 331.537 371.019 333.175L366.777 335.023C364.467 336.073 362.745 336.955 362.745 338.299L367.281 338.215H378.033V343.885ZM388.893 329.269C384.357 329.269 381.501 326.623 381.501 322.297C381.501 317.971 384.357 315.325 388.893 315.325C393.387 315.325 396.243 317.971 396.243 322.297C396.243 326.623 393.387 329.269 388.893 329.269ZM390.111 343.885H384.357L404.643 315.745H410.355L390.111 343.885ZM388.893 324.985C390.867 324.985 391.539 324.481 391.539 322.297C391.539 320.113 390.867 319.609 388.893 319.609C386.919 319.609 386.247 320.113 386.247 322.297C386.247 324.481 386.919 324.985 388.893 324.985ZM405.861 344.305C401.325 344.305 398.469 341.659 398.469 337.333C398.469 333.007 401.325 330.361 405.861 330.361C410.397 330.361 413.211 333.007 413.211 337.333C413.211 341.659 410.397 344.305 405.861 344.305ZM405.861 340.021C407.835 340.021 408.507 339.517 408.507 337.333C408.507 335.149 407.835 334.645 405.861 334.645C403.887 334.645 403.215 335.149 403.215 337.333C403.215 339.517 403.887 340.021 405.861 340.021Z" fill="url(#paint2_linear_227_1998)"/>
<path d="M429.494 335.978C429.118 336.354 429.118 336.963 429.494 337.339C429.87 337.715 430.479 337.715 430.855 337.339L430.175 336.658L429.494 335.978ZM442.686 325.11C442.686 324.578 442.255 324.147 441.723 324.147L433.062 324.147C432.53 324.147 432.1 324.578 432.1 325.11C432.1 325.641 432.53 326.072 433.062 326.072L440.761 326.072L440.761 333.771C440.761 334.303 441.192 334.733 441.723 334.733C442.255 334.733 442.686 334.303 442.686 333.771L442.686 325.11ZM430.175 336.658L430.855 337.339L442.404 325.79L441.723 325.11L441.043 324.429L429.494 335.978L430.175 336.658Z" fill="#127C96"/>
<defs>
<linearGradient id="paint0_linear_227_1998" x1="378.75" y1="36" x2="378.75" y2="436.662" gradientUnits="userSpaceOnUse">
<stop stop-color="#00090D"/>
<stop offset="0.5" stop-color="#00101A"/>
<stop offset="1" stop-color="#00101A"/>
</linearGradient>
<linearGradient id="paint1_linear_227_1998" x1="365.276" y1="115.779" x2="365.276" y2="167.779" gradientUnits="userSpaceOnUse">
<stop stop-color="#9067FF"/>
<stop offset="1" stop-color="#11B5E4"/>
</linearGradient>
<linearGradient id="paint2_linear_227_1998" x1="365.276" y1="304.885" x2="365.276" y2="356.885" gradientUnits="userSpaceOnUse">
<stop stop-color="#9067FF"/>
<stop offset="1" stop-color="#11B5E4"/>
</linearGradient>
</defs>
</svg>
