<svg width="32" height="33" viewBox="0 0 32 33" fill="none" xmlns="http://www.w3.org/2000/svg">
<rect y="0.910156" width="32" height="32" rx="8" fill="#10232D"/>
<path d="M24.0898 12.8527C23.8954 12.1298 23.3254 11.5599 22.6025 11.3652C21.282 11.0039 15.9998 11.0039 15.9998 11.0039C15.9998 11.0039 10.7178 11.0039 9.39732 11.3515C8.68839 11.546 8.1045 12.1299 7.91004 12.8527C7.56253 14.1731 7.56253 16.9115 7.56253 16.9115C7.56253 16.9115 7.56253 19.6637 7.91004 20.9703C8.10471 21.6931 8.67448 22.263 9.39742 22.4577C10.7317 22.8191 16 22.8191 16 22.8191C16 22.8191 21.282 22.8191 22.6025 22.4715C23.3255 22.2769 23.8954 21.707 24.09 20.9842C24.4374 19.6637 24.4374 16.9254 24.4374 16.9254C24.4374 16.9254 24.4513 14.1731 24.0898 12.8527ZM14.3181 19.4413V14.3817L18.7105 16.9115L14.3181 19.4413Z" fill="#CBE0EF" fill-opacity="0.75"/>
</svg>
